<svg width="1920" height="953" viewBox="0 0 1920 953" fill="none" xmlns="http://www.w3.org/2000/svg">
<mask id="mask0_0_789" style="mask-type:luminance" maskUnits="userSpaceOnUse" x="-174" y="0" width="2244" height="953">
<path fill-rule="evenodd" clip-rule="evenodd" d="M-174 0.470703H2069.65V952.857H-174V0.470703Z" fill="white"/>
</mask>
<g mask="url(#mask0_0_789)">
<path fill-rule="evenodd" clip-rule="evenodd" d="M-806.482 -82.3633H2264.07V1035.69H-806.482V-82.3633Z" fill="#2EE5C2" fill-opacity="0.290196"/>
<path fill-rule="evenodd" clip-rule="evenodd" d="M659.529 593.831C657.382 593.649 649.463 584.551 648.696 582.201C647.111 577.351 650.719 573.043 649.852 568.018C646.579 568.306 643.126 569.281 639.802 569.822C637.654 565.479 637.548 560.993 632.084 560.624C626.323 560.233 627.338 564.803 621.525 565.288C613.456 565.963 613.266 550.426 612.324 544.688C620.768 544.187 620.5 534.785 627.216 532.21C631.553 530.549 634.283 534.151 638.362 533.483C641.971 532.888 647.202 527.759 650.113 525.867C652.601 528.385 653.269 531.686 655.145 534.294C657.355 537.364 661.536 541.82 661.536 541.82C661.536 541.82 661.779 529.761 663.348 523.214C670.578 520.058 676.085 514.406 677.414 507.924C678.171 504.223 676.189 503.046 678.28 499.402C679.771 496.806 683.862 494.926 685.9 492.427C692.246 484.625 691.711 484.536 702.118 481.858C708.294 480.269 713.032 477.736 717.746 473.536C713.957 474.147 702.875 476.799 700.882 473.846C697.357 468.631 707.523 463.934 711.418 462.873C724.16 459.414 730.035 461.067 739.322 451.682C735.218 450.536 727.432 451.503 725.011 448.739C722.607 445.995 724.12 439.92 721.564 436.735C711.983 440.852 714.932 435.515 707.548 433.564C701.075 431.857 693.18 437.934 692.126 442.187C690.303 449.53 696.01 451.682 690.027 459.042C685.59 464.501 677.912 470.071 671.612 473.844C667.678 469.421 667.683 465.734 663.73 462.391C660.969 460.056 659.341 461.629 657.18 458.317C655.437 455.646 655.731 450.223 655.385 447.09C663.3 443.012 672.959 436.701 679.112 431.046C682.996 427.476 685.233 425.313 690.047 423.227C694.951 421.103 699.626 422.579 701.691 417.126C701.179 417.126 700.667 417.116 700.154 417.116C697.73 408.825 717.279 412.996 720.446 418.113C721.303 419.497 722.172 420.941 721.879 422.779C721.596 424.539 718.181 426.804 718.193 426.918C718.739 432.156 724.838 431.339 731.075 432.577C732.441 429.278 729.506 427.556 725.917 426.745C729.311 425.804 731.595 423.648 731.171 420.899C728.421 421.025 727.772 419.72 725.616 419.177C727.139 418.333 728.396 416.379 730.536 415.663C730.516 412.362 730.264 408.905 728.523 405.991C721.086 406.629 717.814 406.572 711.591 405.507C702.667 403.973 700.694 407.267 691.793 408.463C691.988 411.392 692.237 414.373 693.767 416.791C693.461 417.128 693.309 417.299 693.003 417.64C689.466 425.791 683.512 415.478 678.697 415.688C679.568 418.393 681.377 420.295 681.96 422.998C672.714 424.019 667.306 429.913 657.872 431.12C650.456 432.067 640.496 433.646 633.297 433.905C625.057 434.204 621.437 432.914 613.204 435.124C607.413 436.68 601.256 438.166 595.39 439.259C592.356 439.821 590.396 438.814 587.409 439.819C585.063 440.608 585.532 443.086 583.542 443.623C575.053 445.913 571.065 440.035 562.202 441.577C558.445 442.231 556.642 444.246 553.339 445.442C543.776 448.907 531.405 448.8 522.617 453.387C514.365 457.69 513.68 465.858 506.388 472.587C499.407 479.027 492.496 485.309 492.474 494.044C505.356 494.526 514.473 486.189 525.229 480.599C532.035 477.058 548.313 476.953 554.876 480.145C559.223 482.261 562.113 494.267 560.832 499.311C559.848 503.191 552.808 507.57 550.927 511.867C548.185 518.121 549.26 518.957 553.545 523.351C549.584 525.656 545.764 534.237 545.315 537.865C549.394 537.894 554.421 537.582 558.329 538.544C564.884 540.157 564.346 541.755 565.956 548.681C567.87 556.908 568.906 569.25 580.234 570.275C575.635 565.504 574.606 554.675 573.608 548.02C579.249 556.288 586.668 553.389 588.643 563.346C590.715 573.784 597.798 576.885 609.105 577.988C618.664 578.925 628.764 574.29 638.634 576.982C646.196 579.049 645.026 582.55 648.014 587.976C650.202 591.95 655.017 597.213 659.529 593.831L659.529 593.831Z" fill="#42D3C5"/>
<path fill-rule="evenodd" clip-rule="evenodd" d="M828.632 400.687C827.448 396.681 820.604 394.667 829.267 391.605C832.783 390.365 835.94 390.925 839.454 390.077C843.233 389.163 841.694 389.454 842.517 386.658C843.226 384.258 842.322 383.94 845.485 382.189C846.766 381.483 847.979 381.58 849.394 380.631C850.974 379.57 851.443 378.161 853.212 377.549C852.311 377.151 851.86 376.959 850.956 376.561C849.23 376.637 846.85 377.077 845.176 376.747C842.768 376.277 841.653 374.883 838.887 374.945C836.774 374.993 834.509 375.757 832.31 376.01C827.496 376.568 823.241 375.639 818.762 376.166C814.387 376.679 810.661 379.147 806.234 379.845C802.205 380.484 797.911 381.446 793.832 381.542C790.998 381.606 788.648 381.145 785.826 381.138C782.488 381.13 779.978 382.713 776.818 383.073C770.352 383.812 764.196 378.774 757.516 379.582C752.907 380.144 748.953 383.098 744.09 382.976C741.226 382.902 739.788 381.789 736.789 382.384C732.441 383.245 729.45 387.292 725.611 388.82C723.152 389.799 720.277 389.267 717.894 390.382C714.982 391.742 713.508 394.117 709.996 395.094C708.264 395.58 706.219 395.631 704.46 395.968C704.541 401.144 718.823 397.45 722.464 396.62C726.019 395.803 728.659 393.898 731.567 392.774C735.127 391.401 738.9 391.568 742.977 391.069C747.507 390.513 749.003 388.174 752.916 386.999C754.768 386.446 763.269 385.568 764.473 386.913C766.958 389.681 759.949 390.757 757.802 391.168C754.378 391.827 752.436 392.025 750.348 394.559C753.472 396.561 759.28 393.831 762.738 395.328C766.296 396.871 763.672 404.542 769.528 403.742C769.866 407.748 769.842 409.115 766.198 410.561C762.298 412.108 760.326 410.837 760.598 415.49C760.981 421.978 768.685 419.582 771.063 424.616C772.354 427.351 773.46 435.553 779.298 429.597C780.89 427.978 779.802 426.106 781.872 424.178C784.053 422.148 788.073 421.683 790.44 419.829C792.936 417.875 793.249 415.969 796.824 414.647C799.477 413.664 802.085 413.603 804.327 412.416C806.877 411.073 808.281 408.643 811.128 407.666C813.106 406.982 815.777 407.372 817.851 406.772C821.513 405.715 829.707 404.315 828.632 400.687L828.632 400.687Z" fill="#42D3C5"/>
<path fill-rule="evenodd" clip-rule="evenodd" d="M776.365 605.073C771.624 603.875 766.627 605.551 763.391 602.073C762.289 600.888 761.194 596.806 759.629 596.58C759.128 596.504 755.778 598.486 754.845 598.77C751.125 599.909 745.953 602.835 742.199 602.532C740.963 597.616 741.484 592.01 740.526 586.869C738.458 587.041 735.775 588.006 733.739 587.791C730.13 587.397 730.107 584.393 726.936 583.037C724.741 582.096 721.975 582.955 719.276 582.187C716.331 581.349 713.844 578.879 711.074 578.109C707.829 577.204 704.435 576.703 700.932 575.345C697.338 573.951 693.928 573.844 689.732 573.854C688.8 574.022 688.332 574.109 687.401 574.279C685.09 576.997 687.687 578.265 688.806 579.963C689.691 581.3 692.303 585.905 688.297 586.568C685.168 587.092 686.82 583.197 685.732 581.526C685.208 580.721 683.283 580.309 682.712 579.475C682.109 578.593 682.189 576.717 681.891 575.724C680.563 575.884 679.212 576.142 677.912 576.477C678.831 583.052 673.931 584.037 667.914 586.151C667.685 588.772 669.915 588.458 670.584 590.037C671.938 593.231 668.777 594.511 668.286 597.151C667.814 599.688 669.505 599.083 670.176 601.426C671.154 604.827 668.038 606.7 665.676 609.033C663.157 611.523 660.443 613.904 659.847 617.53C659.099 622.083 660.906 622.001 664.365 623.201C670.033 625.167 668.396 629.751 669.659 634.879C670.857 635.047 671.868 635.418 673.113 635.395C674.103 637.605 676.711 638.14 678.316 639.504C680.497 641.365 681.896 644.049 682.973 647.163C686.954 646.799 696.465 642.355 698.402 644.43C700.002 646.138 698.343 649.005 699.084 650.523C700.658 653.742 704.789 651.553 708.178 651.611C707.18 653.795 705.795 655.283 703.27 655.578C703.236 658.933 705.806 659.969 706.822 662.66C705.43 663.677 701.224 667.584 701.125 669.043C700.914 672.18 706.503 673.365 706.163 677.174C700.232 678.767 704.029 684.548 704.41 688.15C706.988 689.039 709.725 688.978 712.318 689.813C712.969 693.319 713.658 696.879 714.37 700.317C714.819 702.502 714.513 708.338 715.985 709.933C716.667 710.674 718.479 709.929 719.279 710.716C719.782 711.211 719.617 711.879 720.125 712.474C721.322 713.878 720.404 714.283 722.077 715.403C723.628 716.449 724.58 715.224 725.543 717.024C726.058 717.986 725.754 720.857 725.507 721.857C724.952 724.093 722.063 727.758 723.562 730.137C724.165 731.093 727.473 732.169 728.55 732.86C730.053 733.822 731.649 735.034 732.935 736.278C735.537 738.796 737.893 743.502 742.349 742.75C747.196 741.937 746.15 736.478 746.067 732.737C743.779 733.508 743.725 732.424 742.349 731.803C739.406 730.476 738.795 729.853 734.937 730.369C733.685 727.219 738.641 724.47 739.374 721.798C741.11 715.493 734.427 719.908 731.431 715.758C734.154 712.156 736.982 713.874 740.748 713.457C748.518 712.59 740.501 709.188 740.679 705.224C745.078 704.184 752.327 699.916 750.61 694.199C745.112 694.674 740.687 697.948 740.169 691.013C744.849 690.07 748.542 692.295 752.669 689.571C757.745 686.222 758.832 677.75 760.673 672.308C761.978 668.458 762.006 660.536 765.996 658.437C770.177 656.239 776.312 658.915 780.144 655.563C778.305 651.767 774.913 649.03 774.947 644.494C774.979 639.889 777.541 635.879 778.113 631.435C778.584 627.765 779.121 625.447 780.765 622.087C781.863 619.831 784.153 615.09 784.273 612.719C784.474 608.763 779.675 605.913 776.365 605.073V605.073Z" fill="#42D3C5"/>
<path fill-rule="evenodd" clip-rule="evenodd" d="M1146.06 577.936C1146.92 582.178 1141.74 585.683 1141.91 589.82C1144.24 584.468 1146.36 579.986 1149.35 574.78C1155.12 574.59 1154.06 580.574 1155.1 583.774C1156.67 588.599 1160.1 590.881 1164.76 593.182C1168.94 589.323 1175.6 587.641 1176.9 582.163C1178.09 577.148 1170.7 575.308 1168.74 570.119C1167.37 566.515 1163.64 555.873 1170.21 555.243C1174.91 554.793 1178.51 563.929 1178.69 567.656C1180.5 565.774 1181.48 563.039 1183.35 561.3C1186.37 558.479 1187.47 559.622 1190.85 558.483C1194.56 557.233 1201.12 555.127 1203.91 552.433C1207.41 549.05 1206.09 548.866 1203.22 544.999C1197.75 537.654 1198.8 535.506 1201.89 527.652C1202.59 525.854 1205.16 521.41 1203.99 519.498C1201.39 515.237 1197.69 519.616 1195.08 519.456C1189.86 519.13 1191.02 513.843 1195.63 511.586C1199.7 509.593 1203.28 512.637 1207.17 515.965C1210.41 518.742 1225.98 537.18 1230.01 531.502C1225.32 527.576 1218.14 524.582 1218.02 518.589C1217.84 509.174 1225.8 513.789 1231.52 512.222C1239.24 510.107 1240.48 491.517 1235.84 485.058C1231.63 479.193 1225.69 482.361 1219.92 478.574C1218.01 477.323 1215.58 473.797 1215.35 472.044C1214.75 467.621 1216.93 468.694 1219.68 468.138C1220.67 467.936 1222.56 468.743 1223.73 468.642C1225.29 468.505 1226.49 467.399 1227.9 467.178C1231.47 466.614 1232.31 466.661 1235.55 468.633C1240.71 471.761 1244.95 477.749 1250.22 472.027C1251.46 470.682 1251.55 467.361 1252.5 465.713C1257.54 467.13 1262.79 466.336 1267.69 468.385C1267.01 471.943 1266.36 472.681 1263.9 474.926C1262.59 476.121 1257.42 478.724 1257.08 480.244C1256.22 484.027 1267.69 493.963 1270.75 497.551C1276.53 504.323 1279.12 498.606 1278.36 492.648C1277.93 489.22 1277.25 489.004 1275.07 486.425C1272.39 483.252 1268.4 481.321 1271.04 477.288C1275.29 478.93 1281.25 479.185 1285.99 480.555C1292.28 482.374 1295.14 481.759 1297.48 476.595C1293.06 475.85 1291.25 472.362 1292.94 469.227C1297.17 469.886 1302.38 475.183 1305.85 475.09C1313.57 474.886 1303.13 468.418 1300.07 467.303C1288.79 463.193 1276.09 460.077 1266.16 452.854C1260.95 449.063 1256.06 447.663 1249.47 446.999C1246.69 446.722 1242.67 446.861 1240.44 445.698C1238.45 444.659 1237.81 442.221 1235.74 441.094C1234.21 440.265 1232.19 440.315 1230.56 439.734C1223.9 437.353 1217.58 436.031 1210.47 434.336C1208.19 433.787 1205.38 432.669 1203.38 432.227C1199.43 431.362 1194.97 432.25 1190.14 432.459C1188.34 427.998 1180.97 420.28 1174.9 419.869C1170.18 419.547 1168.5 423.934 1165.31 424.158C1163.5 424.286 1164.11 423.981 1162.03 423.526C1160.83 423.263 1160.94 421.553 1159.92 421.189C1158.4 420.656 1157.16 421.45 1156.44 421.24C1151.32 419.73 1144.36 416.177 1138.84 415.585C1131.93 414.844 1129.5 417.4 1122.48 414.821C1117.68 413.055 1113.73 410.09 1109.17 408.231C1112.67 407.934 1119.12 408.063 1121.32 405.812C1115.99 403.614 1107.93 400.652 1102.06 399.998C1095.79 399.303 1089.05 404.654 1083.79 403.377C1080.18 402.499 1078.98 399.972 1074.56 399.684C1069.33 399.351 1064.86 399.97 1059.38 399.351C1053.47 398.682 1046.29 397.564 1045.48 403.945C1050.4 405.943 1049.79 408.375 1049.25 412.189C1045.16 413.526 1039.12 413.263 1037.46 409.124C1035.56 404.368 1040.36 402.006 1032.74 399.979C1029.87 399.217 1017.44 397.831 1017.62 400.482C1017.97 405.434 1030.77 403.537 1027.82 410.065C1021.96 411.667 1019.42 411.014 1014.65 408.063C1011.47 406.101 1012.51 405.716 1008.66 404.707C1004.09 403.505 998.464 404.044 993.973 404.72C992.512 407.714 987.62 407.781 984.45 409.141C981.292 410.495 979.192 412.227 976.492 414.269C973.468 416.558 969.205 420.737 964.825 418.869C961.902 417.627 960.387 412.537 961.188 410.206C964.167 410.294 965.94 412.238 967.937 410.204C970.999 407.084 966.144 404.654 963.022 403.92C959.462 403.088 956.846 404.349 953.255 404.095C947.752 403.707 942.921 400.642 937.091 400.236C926.292 399.486 913.974 402.977 904.599 407.04C901.724 408.282 887.762 419.113 888.225 421.189C888.791 423.72 893.965 423.486 895.834 424.454C898.006 425.581 899.502 428.45 902.59 429.379C907.131 430.745 914.303 431.951 919.343 432.174C931.215 432.696 922.481 426.806 921.606 422.579C921.438 421.777 921.912 417.227 922.384 416.442C924.492 412.939 925.422 414.295 929.042 413.099C932.056 412.105 934.663 409.229 937.373 412.234C939.379 414.463 935.858 419.901 934.903 421.852C937.139 424.014 956 422.772 946.857 428.505C946.798 428.541 946.732 428.576 946.666 428.606C944.195 428.783 941.98 428.964 940.748 429.069C940.417 429.084 940.093 429.109 939.778 429.143L939.794 429.151C939.701 429.156 939.694 429.155 939.778 429.143C938.903 428.962 937.975 428.928 936.98 429.084C932.405 429.795 930.713 435.334 927.741 438.05C921.987 443.294 919.236 439.465 912.332 439.819C908.635 440.008 904.853 441.829 901.044 442.698C895.829 443.878 886.048 445.503 882.252 449.058C880.45 450.745 880.717 452.799 879.076 454.326C877.04 456.225 872.846 455.071 874.279 459.511C875.809 459.564 877.179 460.713 878.654 460.85C879.319 463.155 876.453 470.743 873.959 472.021C869.209 474.45 864.668 468.711 861.605 467.046C860.623 468.353 858.509 470.431 858.215 471.976C857.916 473.543 859.602 474.023 859.657 475.909C859.761 479.387 858.822 482.989 854.494 484.235C854.34 484.524 854.297 484.823 854.36 485.138C860.945 488.9 867.44 486.302 873.793 483.614C881.701 480.269 881.284 467.225 891.744 470.014C891.131 459.141 903.375 469.332 906.165 471.069C908.898 472.77 911.543 473.002 913.886 475.593C915.18 477.018 914.461 478.7 915.475 479.856C916.232 480.732 918.305 481.45 919.298 482.522C917.681 476.581 917.795 473.833 913.8 468.671C910.677 464.627 910.172 457.553 918.447 462.659C921.672 464.648 926.648 470.896 927.918 473.972C929.933 478.858 928.875 485.869 937.22 485.271C931.264 479.277 941.608 477.157 946.437 477.505C946.908 480.86 946.267 484.913 949.149 486.644C951.867 488.282 959.483 487.82 962.673 487.696C965.566 487.583 969.922 485.667 972.821 486.692C976.114 487.852 974.238 487.279 975.27 489.721C976.442 492.486 975.487 495.884 974.343 498.336C974.599 497.58 974.723 497.199 974.977 496.441C966.087 499.795 942.426 509.532 940.467 492.222C935.826 490.957 929.619 496.825 935.021 498.888C931.67 501.702 921.009 501.764 916.48 500.374C914.402 499.736 906.068 496.288 905.742 494.136C905.347 491.5 909.585 489.804 909.936 486.987C905.155 487.728 905.338 482.401 901.066 482.972C899.185 483.225 898.675 485.479 896.967 486.037C894.598 486.806 890.666 485.776 888.354 485.618C882.593 485.216 875.517 484.067 870.376 486.993C868.706 487.942 867.966 489.669 866.044 490.585C862.919 492.069 858.356 490.623 856.224 493.709C855.097 495.338 856.515 497.637 856.045 499.382C855.324 502.056 854.578 501.425 853.222 503.875C852.012 506.06 852.057 509.357 850.835 511.271C848.33 515.189 843.341 516.789 839.532 519.412C837.177 521.033 831.148 525.429 831.924 528.612C832.545 531.153 835.819 529.648 835.86 533.104C835.887 535.368 830.173 539.052 829.017 540.847C831.711 541.256 833.705 543.435 833.705 543.435C833.705 543.435 833.687 545.229 833.88 545.477C834.4 546.136 836.317 545.957 836.494 546.239C839.481 551.01 837.952 556.289 841.387 560.708C846.887 567.784 856.705 573.868 866.516 574.193C876.711 574.536 879.91 564.308 889.701 565.411C893.432 565.831 901.041 568.07 902.547 571.902C904.103 575.862 897.781 582.016 895.943 585.517C897.742 586.898 900.051 587.963 901.994 588.87C897.471 590.338 893.194 592.651 897.031 596.19C900.835 599.696 904.188 596.971 903.374 603.575C909.601 603.445 915.267 606.719 915.616 612.916C915.854 617.098 916.294 615.129 913.124 618.535C910.655 621.184 910.104 620.754 909.605 624.914C909.177 628.474 909.084 627.525 910.356 631.691C911.319 634.851 911.029 635.466 912.748 638.001C914.722 640.912 915.538 641.316 916.522 645.019C917.26 647.807 916.738 651.339 920.824 652.007C919.876 658.388 926.19 663.358 926.898 669.301C927.285 672.588 924.794 677.823 926.215 680.826C927.728 684.015 933.021 684.362 935.736 682.405C938.878 680.146 938.146 676.518 942.889 675.464C945.834 674.813 946.566 676.209 948.348 674.232C949.516 672.937 949.063 670.613 951.037 668.782C953.835 666.188 957.699 666.181 961.09 664.316C966.627 661.266 966.627 657.967 969.014 652.542C967.235 651.337 964.659 646.034 965.498 643.719C966.988 639.609 976.428 636.531 979.668 634.51C986.103 630.5 982.108 628.685 980.793 623.632C979.408 618.321 982.534 614.197 985.815 610.216C983.723 609.845 982.355 607.986 980.312 607.474C977.454 606.765 972.561 608.365 971.209 604.681C970.533 602.835 973.302 598.557 975.588 598.411C978.109 598.245 978.6 600.235 980.603 601.719C983.301 598.803 984.917 596.178 988.293 594.081C990.125 592.936 992.234 592.955 994.005 591.487C996.7 589.26 997.537 586.319 999.573 583.536C1003.19 578.601 1008.79 578.07 1013.75 574.367C1017.78 571.365 1017.63 567.879 1017.76 563.21C1010.61 561.479 1003.32 565.885 998.077 558.711C997.859 558.412 997.666 558.1 997.492 557.78C997.884 557.959 998.319 558.104 998.797 558.203C1003.2 559.131 1007.41 553.94 1011.47 552.492C1016.37 550.738 1022 551.121 1026.53 548.367C1029.01 546.862 1029.09 544.809 1030.58 543.269C1033.53 540.214 1038.18 539.005 1041.59 536.142C1040.88 534.936 1039.61 532.965 1038.22 532.106C1036.84 531.252 1033.98 531.696 1032.82 530.858C1029.68 528.599 1030.38 524.022 1029.87 520.45C1024.55 519.848 1023.97 526.517 1020.14 527.102C1015.48 527.814 1014.61 519.01 1013.14 516.039C1011.22 512.151 1007.21 508.298 1010.96 504.654C1011.08 504.538 1011.22 504.439 1011.38 504.357C1012.56 504.218 1013.15 504.149 1014.33 504.01C1014.33 504.031 1014.32 504.046 1014.32 504.069C1011.72 515.58 1023.94 515.856 1033.6 516.904C1034.17 520.82 1033.61 526.382 1037.2 528.393C1043.03 531.666 1050.49 525.429 1055.92 527.801C1058.73 529.029 1061.14 533.18 1063.31 535.25C1068.63 540.342 1071.87 539.548 1080.21 539.519C1080.21 544.74 1077.85 550.769 1079.38 555.879C1080.78 560.527 1084.59 564.62 1085.67 569.399C1086.9 574.879 1090.42 584.334 1093.12 572.929C1094.88 565.557 1089.66 561.111 1096.5 554.892C1100.72 551.058 1106.94 546.233 1112.02 543.401C1118.8 539.628 1125.03 548.727 1130.43 553.382C1136.48 558.61 1139.28 562.83 1141.56 569.656C1142.52 572.525 1145.54 575.353 1146.06 577.936V577.936ZM993.615 550.068C991.152 547.957 986.713 545.306 983.756 542.296C978.295 536.738 976.073 530.727 972.967 524.349C970.014 518.294 967.382 515.578 967.944 508.612C971.187 509.37 973.295 514.567 974.982 517.117C977.088 520.311 979.909 522.967 981.999 526.071C983.271 527.961 983.414 530.685 984.994 532.428C986.167 533.721 988.2 534.104 989.291 535.302C992.458 538.784 992.572 542.005 993.231 546.321C993.402 547.441 993.485 548.753 993.63 550.087L993.615 550.068Z" fill="#42D3C5"/>
<path fill-rule="evenodd" clip-rule="evenodd" d="M992.545 636.384C987.169 640.247 991.449 639.603 991.415 644.862C991.384 649.967 985.534 650.015 983.455 653.889C984.813 657.592 989.84 656.868 993.025 657.009C994.807 653.883 998.215 652.878 1000.44 650.266C1002.38 647.997 1004.45 644.314 1005.66 641.59C1007.5 637.464 1005.26 632.914 1005.95 629.129C1004.48 629.921 1003.83 629.841 1001.84 630.617C998.405 631.956 995.463 634.291 992.545 636.384H992.545Z" fill="#42D3C5"/>
<path fill-rule="evenodd" clip-rule="evenodd" d="M1005.95 629.129C1006.16 629.015 1006.39 628.884 1006.64 628.729C1008.16 627.802 1008.51 626.287 1010.25 625.684C1009.03 625.962 1008.42 626.099 1007.2 626.383C1006.5 627.232 1006.13 628.154 1005.95 629.129H1005.95Z" fill="#42D3C5"/>
<path fill-rule="evenodd" clip-rule="evenodd" d="M1250.54 713.754C1250.39 710.761 1250.77 708.902 1250.23 705.624C1249.98 704.112 1250.75 700.089 1249.99 698.721C1248.8 696.58 1245.64 697.42 1244.75 694.388C1244.06 692.032 1246.9 685.472 1247.23 683.445C1247.77 680.073 1249.54 675.456 1248.67 672.094C1245.98 671.529 1243.59 670.035 1241.13 668.885C1240.74 668.77 1240.55 668.711 1240.16 668.595C1245.1 672.226 1238.12 681.74 1233.03 681.862C1220.49 682.157 1227.1 668.431 1229.89 663.664C1224.27 660.936 1224.04 664.186 1219.97 665.614C1218.43 666.155 1215.97 664.869 1214.34 666.245C1212.77 667.563 1213.56 669.97 1211.54 671.437C1206.78 674.892 1202.77 670.955 1201.26 666.59C1200.85 665.412 1202.38 662.553 1200.2 662.279C1198.56 662.071 1197.9 667.809 1196.74 668.892C1193.02 672.395 1184.84 672.033 1180.28 674.599C1178.64 675.523 1177.07 677.279 1175.24 677.654C1172.97 678.117 1170.41 676.489 1168.06 677.595C1163.12 679.93 1162.16 685.883 1161.69 690.298C1160.83 698.342 1154.95 704.013 1153.84 712.009C1161.09 716.864 1167.31 707.06 1175.05 706.466C1181.98 705.931 1190.9 707.281 1197.72 709.291C1196.05 712.502 1195.1 717.803 1199.5 719.075C1202.83 720.041 1205.71 715.454 1209.62 717.565C1208.8 722.342 1207.06 727.784 1203.93 731.489C1206.53 733.657 1208.65 733.83 1211.82 734.571C1213.15 734.881 1216.05 736.535 1217.32 736.237C1218.79 735.893 1218.93 734.519 1220.08 733.95C1221.11 733.443 1221.99 732.986 1223.3 732.369C1230.06 729.192 1239.26 731.748 1240.56 721.934C1240.02 721.649 1239.34 721.213 1238.75 720.986C1241.64 718.561 1250.93 724.207 1253.05 719.27C1249.25 718.517 1250.66 716.237 1250.54 713.753V713.754Z" fill="#42D3C5"/>
<path fill-rule="evenodd" clip-rule="evenodd" d="M1170.65 626.56C1172.72 629.31 1178.06 629.902 1181.08 630.622C1184.98 631.558 1187.88 630.996 1189.39 626.956C1190.2 624.767 1189.3 622.813 1192.11 621.651C1194.92 620.498 1196.8 621.569 1195.32 617.561C1194.63 615.706 1192.84 613.392 1194.53 611.403C1196.59 608.99 1198.56 612.011 1200.92 611.822C1201.41 611.55 1201.65 611.413 1202.14 611.144C1199.69 611.39 1196.18 609.904 1195.21 607.369C1194.35 605.15 1195.22 603.967 1191.8 603.668C1191.15 608.312 1182.4 605.199 1179.61 607.618C1178.1 608.933 1178.1 611.043 1176.7 612.417C1174.58 614.481 1172.36 612.965 1169.67 613.236C1169.09 614.125 1166.76 615.274 1167.14 616.569C1167.49 617.746 1169.71 618.163 1170.17 619.71C1170.93 622.241 1168.94 624.28 1170.65 626.56H1170.65Z" fill="#42D3C5"/>
<path fill-rule="evenodd" clip-rule="evenodd" d="M1160.78 632.866C1161.4 630.222 1162.18 630.222 1160.59 627.67C1159.42 625.795 1157.48 623.437 1157.14 620.978C1156.67 617.514 1157.31 616.359 1154.3 613.736C1152.07 611.794 1151.9 610.9 1150.38 608.319C1149.24 606.401 1147.64 605.085 1146.02 603.433C1144.59 601.978 1144.06 600.5 1143.12 598.704C1141.88 596.312 1141.17 596.359 1138.36 595.795C1137.99 594.942 1137.8 594.512 1137.42 593.656C1135.94 595.319 1139.61 602.401 1140.12 604.7C1141.12 609.222 1143.69 612.384 1145.61 616.63C1146.41 618.401 1146.91 620.378 1147.71 622.228C1148.75 624.651 1150.44 625.875 1152.47 627.575C1155.98 630.512 1154.15 638.556 1160.31 639.068C1160.58 637.047 1160.31 634.858 1160.78 632.866Z" fill="#42D3C5"/>
<path fill-rule="evenodd" clip-rule="evenodd" d="M1181.26 646.191C1184.28 646.616 1200.23 651.662 1200.92 646.726C1196.05 644.909 1193.01 641.987 1188 640.444C1181.13 638.326 1175.33 643.01 1168.41 638.73C1168.05 638.45 1167.87 638.305 1167.51 638.025C1164.5 639.53 1169.68 643.698 1171.36 644.334C1174.55 645.523 1178.16 645.759 1181.26 646.191V646.191Z" fill="#42D3C5"/>
<path fill-rule="evenodd" clip-rule="evenodd" d="M1215.94 619.701C1215.54 617.031 1213.51 615.648 1210.49 615.276C1209.11 615.107 1207.95 615.435 1206.57 615.012C1204.81 614.476 1203.73 613.031 1201.77 612.779C1201.65 612.844 1201.59 612.88 1201.47 612.949C1203.48 616.273 1206.89 617.181 1210.57 618.554C1209.76 619.459 1208.69 618.585 1207.42 618.436C1205.48 618.202 1204.12 618.596 1202.5 619.562C1204.36 620.263 1206.65 620.633 1208.62 621.265C1206.75 622.886 1203.96 622.556 1202.69 625.132C1201.92 626.711 1201.74 629.174 1201.45 630.901C1202.85 630.8 1204.48 630.341 1205.45 629.368C1206.71 628.103 1206.21 626.673 1208.53 626.379C1212.61 625.857 1213.25 630.355 1212.55 633.088C1214.26 631.526 1213.57 626.657 1214.58 624.269C1215.3 622.595 1216.23 621.659 1215.94 619.701V619.701Z" fill="#42D3C5"/>
<path fill-rule="evenodd" clip-rule="evenodd" d="M1267.8 671.493C1266.25 668.948 1265.1 667.937 1264.27 665.002C1263.6 662.64 1262.9 659.99 1261.47 657.935C1260.11 656.007 1257.72 654.451 1257.79 652.021C1256.18 650.855 1254.76 649.255 1253.05 648.255C1251.59 647.403 1248.96 646.758 1247.86 645.445C1246.72 644.095 1247.11 641.342 1245.15 640.619C1243.38 639.965 1241.64 642.028 1239.77 642.163C1235.42 642.48 1234.32 637.396 1232.74 634.506C1230.91 631.165 1228.96 631.672 1225.98 631.87C1225.65 631.824 1224.75 631.862 1224.28 631.676C1223.92 632.857 1223.62 634.108 1223.39 635.327C1224.77 635.786 1227.44 635.914 1228.55 636.794C1230.08 638.013 1229.3 638.775 1229.03 640.39C1231.24 640.855 1231.01 643.139 1232.15 644.603C1233.08 645.788 1235.8 648.175 1237.11 648.969C1234.97 652.009 1233.35 654.901 1236.2 658.699C1239.05 662.495 1245.5 663.097 1249.57 663.956C1252.67 664.611 1255.77 665.857 1258.8 666.834C1261.14 667.586 1260.76 667.116 1261.68 669.615C1262.28 671.23 1262.96 674.504 1264.46 675.647C1265.36 676.331 1267.43 676.657 1268.54 676.956C1269.55 675.053 1268.83 673.198 1267.8 671.493V671.493Z" fill="#42D3C5"/>
<path fill-rule="evenodd" clip-rule="evenodd" d="M1135.83 600.18C1136.6 598.14 1137.03 595.894 1137.03 593.535C1137.03 584.156 1130.29 576.554 1121.98 576.554C1121.04 576.554 1120.12 576.667 1119.22 576.85C1118.81 567.895 1112.26 560.776 1104.22 560.776C1104.1 560.776 1103.98 560.796 1103.85 560.8C1100.37 552.448 1092.86 546.666 1084.14 546.666C1073.45 546.666 1064.56 555.363 1062.72 566.833C1060.94 566.297 1059.07 566.009 1057.14 566.009C1045.11 566.009 1035.37 577.02 1035.37 590.59C1035.37 593.992 1035.98 597.233 1037.09 600.18L1135.83 600.18Z" fill="white"/>
<path fill-rule="evenodd" clip-rule="evenodd" d="M790.421 530.378C790.981 528.893 791.292 527.262 791.292 525.549C791.292 518.732 786.395 513.204 780.355 513.204C779.668 513.204 779.001 513.285 778.35 513.419C778.047 506.911 773.287 501.735 767.445 501.735C767.354 501.735 767.265 501.749 767.171 501.751C764.645 495.68 759.181 491.477 752.844 491.477C745.074 491.477 738.616 497.798 737.276 506.138C735.98 505.75 734.621 505.538 733.218 505.538C724.475 505.538 717.39 513.542 717.39 523.406C717.39 525.88 717.836 528.235 718.641 530.378L790.421 530.378Z" fill="white"/>
<path fill-rule="evenodd" clip-rule="evenodd" d="M1006.75 346.108C1007.31 344.626 1007.62 342.992 1007.62 341.279C1007.62 334.463 1002.72 328.937 996.68 328.937C995.993 328.937 995.326 329.016 994.675 329.151C994.371 322.641 989.612 317.467 983.77 317.467C983.679 317.467 983.591 317.481 983.495 317.481C980.97 311.412 975.507 307.209 969.17 307.209C961.399 307.209 954.941 313.531 953.603 321.87C952.307 321.48 950.946 321.27 949.545 321.27C940.8 321.27 933.715 329.272 933.715 339.136C933.715 341.61 934.159 343.967 934.966 346.108L1006.75 346.108Z" fill="white"/>
<path fill-rule="evenodd" clip-rule="evenodd" d="M646.673 336.703C642.221 341.062 637.829 345.596 633.616 350.185L637.013 354.812C641.161 350.296 645.485 345.832 649.866 341.54L646.673 336.703Z" fill="#FCFCFC"/>
<path fill-rule="evenodd" clip-rule="evenodd" d="M618.618 701.075C622.567 705.981 626.71 710.856 630.936 715.56L634.375 710.979C630.219 706.35 626.141 701.556 622.259 696.73L618.618 701.075Z" fill="#FCFCFC"/>
<path fill-rule="evenodd" clip-rule="evenodd" d="M638.626 723.855C642.914 728.334 647.38 732.759 651.899 737.011L655.014 732.095C650.563 727.912 646.165 723.556 641.943 719.143L638.626 723.855Z" fill="#FCFCFC"/>
<path fill-rule="evenodd" clip-rule="evenodd" d="M558.526 624.521C560.614 630.935 562.924 637.378 565.393 643.674L569.99 640.998C567.572 634.831 565.31 628.516 563.263 622.23L558.526 624.521Z" fill="#FCFCFC"/>
<path fill-rule="evenodd" clip-rule="evenodd" d="M570.018 650.381C572.664 656.49 575.523 662.604 578.516 668.552L582.862 665.308C579.926 659.477 577.121 653.481 574.525 647.484L570.018 650.381Z" fill="#FCFCFC"/>
<path fill-rule="evenodd" clip-rule="evenodd" d="M600.343 697.776C603.914 703.108 607.684 708.414 611.55 713.552L615.307 709.355C611.507 704.307 607.802 699.091 604.292 693.855L600.343 697.776Z" fill="#FCFCFC"/>
<path fill-rule="evenodd" clip-rule="evenodd" d="M584.057 674.871C587.193 680.603 590.534 686.323 593.988 691.873L598.048 688.124C594.657 682.675 591.376 677.059 588.297 671.43L584.057 674.871Z" fill="#FCFCFC"/>
<path fill-rule="evenodd" clip-rule="evenodd" d="M718.051 779.301C723.08 782.446 728.256 785.506 733.434 788.394L735.556 782.749C730.446 779.901 725.34 776.884 720.38 773.779L718.051 779.301Z" fill="#FCFCFC"/>
<path fill-rule="evenodd" clip-rule="evenodd" d="M744.516 793.442C749.71 796.136 755.05 798.742 760.387 801.181L762.178 795.371C756.909 792.963 751.638 790.392 746.514 787.734L744.516 793.442Z" fill="#FCFCFC"/>
<path fill-rule="evenodd" clip-rule="evenodd" d="M554.767 595.945L549.849 597.573C551.339 604.24 553.05 610.948 554.932 617.512L559.743 615.466C557.9 609.037 556.225 602.469 554.767 595.945Z" fill="#FCFCFC"/>
<path fill-rule="evenodd" clip-rule="evenodd" d="M701.17 299.223C696.221 302.672 691.297 306.302 686.533 310.004L689.276 315.235C693.97 311.589 698.824 308.01 703.703 304.605L701.17 299.223Z" fill="#FCFCFC"/>
<path fill-rule="evenodd" clip-rule="evenodd" d="M692.56 762.985C697.376 766.572 702.354 770.09 707.354 773.435L709.807 767.994C704.878 764.698 699.969 761.23 695.22 757.691L692.56 762.985Z" fill="#FCFCFC"/>
<path fill-rule="evenodd" clip-rule="evenodd" d="M660.122 744.502C664.708 748.547 669.45 752.516 674.218 756.305L677.002 751.108C672.304 747.378 667.629 743.46 663.113 739.473L660.122 744.502Z" fill="#FCFCFC"/>
<path fill-rule="evenodd" clip-rule="evenodd" d="M668.68 316.881C663.95 320.797 659.272 324.881 654.772 329.017L657.844 333.97C662.275 329.894 666.884 325.873 671.545 322.013L668.68 316.881Z" fill="#FCFCFC"/>
<path fill-rule="evenodd" clip-rule="evenodd" d="M771.784 805.422C777.128 807.674 782.603 809.823 788.051 811.806L789.512 805.862C784.131 803.903 778.728 801.778 773.448 799.553L771.784 805.422Z" fill="#FCFCFC"/>
<path fill-rule="evenodd" clip-rule="evenodd" d="M1275.65 448.299L1280.41 446.055C1278.36 439.62 1276.08 433.155 1273.66 426.842L1269.04 429.476C1271.42 435.662 1273.65 441.996 1275.65 448.299H1275.65Z" fill="#FCFCFC"/>
<path fill-rule="evenodd" clip-rule="evenodd" d="M1269.1 420.113C1266.49 413.997 1263.67 407.858 1260.7 401.867L1256.34 405.076C1259.25 410.95 1262.02 416.972 1264.57 422.965L1269.1 420.113Z" fill="#FCFCFC"/>
<path fill-rule="evenodd" clip-rule="evenodd" d="M1212.99 368.327C1213.76 366.451 1214.76 364.71 1215.97 363.173C1213.57 360.297 1211.15 357.445 1208.68 354.664L1205.22 359.219C1207.86 362.191 1210.45 365.247 1212.99 368.327V368.327Z" fill="#FCFCFC"/>
<path fill-rule="evenodd" clip-rule="evenodd" d="M1285.28 460.354C1284.48 457.152 1283.64 453.963 1282.76 450.809L1277.94 452.808C1278.63 455.302 1279.28 457.829 1279.93 460.354L1285.28 460.354Z" fill="#FCFCFC"/>
<path fill-rule="evenodd" clip-rule="evenodd" d="M567.284 433.816L562.629 431.289C560.303 437.645 558.136 444.149 556.188 450.622L560.972 452.754C562.881 446.415 565.005 440.044 567.284 433.816Z" fill="#FCFCFC"/>
<path fill-rule="evenodd" clip-rule="evenodd" d="M1201.03 346.316C1196.78 341.818 1192.33 337.362 1187.82 333.066L1184.68 337.96C1189.13 342.189 1193.51 346.578 1197.69 350.999L1201.03 346.316Z" fill="#FCFCFC"/>
<path fill-rule="evenodd" clip-rule="evenodd" d="M547.305 513.725L542.226 513.234C541.773 520.132 541.521 527.156 541.478 534.102L546.573 534.15C546.616 527.348 546.861 520.481 547.305 513.725V513.725Z" fill="#FCFCFC"/>
<path fill-rule="evenodd" clip-rule="evenodd" d="M546.713 541.342L541.621 541.56C541.823 548.494 542.235 555.502 542.846 562.397L547.913 561.731C547.316 554.985 546.911 548.124 546.713 541.342L546.713 541.342Z" fill="#FCFCFC"/>
<path fill-rule="evenodd" clip-rule="evenodd" d="M557.707 459.58L552.853 457.689C551.114 464.318 549.552 471.086 548.21 477.81L553.162 479.274C554.475 472.692 556.005 466.065 557.707 459.58V459.58Z" fill="#FCFCFC"/>
<path fill-rule="evenodd" clip-rule="evenodd" d="M550.992 486.331L545.992 485.127C544.884 491.956 543.967 498.907 543.267 505.79L548.325 506.554C549.01 499.816 549.906 493.012 550.992 486.331V486.331Z" fill="#FCFCFC"/>
<path fill-rule="evenodd" clip-rule="evenodd" d="M549.212 568.887L544.176 569.818C545.029 576.66 546.103 583.564 547.366 590.344L552.336 588.971C551.1 582.338 550.05 575.58 549.212 568.887Z" fill="#FCFCFC"/>
<path fill-rule="evenodd" clip-rule="evenodd" d="M1189.81 725.763L1193.02 730.576C1197.46 726.183 1201.83 721.618 1206.01 717.005L1202.6 712.402C1198.47 716.941 1194.17 721.439 1189.81 725.763V725.763Z" fill="#FCFCFC"/>
<path fill-rule="evenodd" clip-rule="evenodd" d="M1147.38 306.89C1142.57 303.267 1137.61 299.721 1132.63 296.348L1130.15 301.775C1135.07 305.097 1139.96 308.595 1144.69 312.168L1147.38 306.89Z" fill="#FCFCFC"/>
<path fill-rule="evenodd" clip-rule="evenodd" d="M1136.24 762.98L1138.8 768.351C1143.73 764.867 1148.64 761.207 1153.39 757.477L1150.62 752.262C1145.95 755.942 1141.11 759.547 1136.24 762.98V762.98Z" fill="#FCFCFC"/>
<path fill-rule="evenodd" clip-rule="evenodd" d="M1110.8 778.399L1113.02 783.984C1118.16 780.95 1123.27 777.749 1128.23 774.469L1125.8 769.012C1120.91 772.251 1115.86 775.408 1110.8 778.399Z" fill="#FCFCFC"/>
<path fill-rule="evenodd" clip-rule="evenodd" d="M1168.21 745.432L1171.1 750.546C1175.81 746.606 1180.47 742.489 1184.96 738.319L1181.86 733.385C1177.44 737.495 1172.85 741.548 1168.21 745.432Z" fill="#FCFCFC"/>
<path fill-rule="evenodd" clip-rule="evenodd" d="M1179.63 325.523C1175.06 321.445 1170.34 317.442 1165.58 313.623L1162.78 318.804C1167.46 322.568 1172.11 326.511 1176.61 330.53L1179.63 325.523Z" fill="#FCFCFC"/>
<path fill-rule="evenodd" clip-rule="evenodd" d="M1057.3 802.833L1058.86 808.738C1064.26 806.62 1069.7 804.333 1075.02 801.932L1073.25 796.113C1068 798.478 1062.63 800.742 1057.3 802.833V802.833Z" fill="#FCFCFC"/>
<path fill-rule="evenodd" clip-rule="evenodd" d="M1095.56 276.139C1090.37 273.414 1085.04 270.777 1079.72 268.311L1077.9 274.107C1083.16 276.545 1088.42 279.148 1093.53 281.838L1095.56 276.139Z" fill="#FCFCFC"/>
<path fill-rule="evenodd" clip-rule="evenodd" d="M1084.43 791.679L1086.32 797.442C1091.61 794.867 1096.9 792.122 1102.05 789.286L1099.95 783.631C1094.87 786.428 1089.65 789.137 1084.43 791.679Z" fill="#FCFCFC"/>
<path fill-rule="evenodd" clip-rule="evenodd" d="M1121.96 290.43C1116.95 287.255 1111.78 284.165 1106.61 281.246L1104.47 286.873C1109.57 289.755 1114.66 292.805 1119.61 295.935L1121.96 290.43Z" fill="#FCFCFC"/>
<path fill-rule="evenodd" clip-rule="evenodd" d="M1259.65 657.918L1264.08 660.992C1266.91 654.947 1269.59 648.748 1272.06 642.564L1267.48 639.85C1265.06 645.915 1262.42 651.992 1259.65 657.918Z" fill="#FCFCFC"/>
<path fill-rule="evenodd" clip-rule="evenodd" d="M1271.7 633.3L1276.36 635.784C1278.65 629.404 1280.78 622.882 1282.69 616.397L1277.89 614.307C1276.02 620.656 1273.94 627.047 1271.7 633.3V633.3Z" fill="#FCFCFC"/>
<path fill-rule="evenodd" clip-rule="evenodd" d="M1281.09 607.461L1285.95 609.307C1287.65 602.677 1289.17 595.892 1290.47 589.147L1285.51 587.723C1284.23 594.331 1282.75 600.97 1281.09 607.461Z" fill="#FCFCFC"/>
<path fill-rule="evenodd" clip-rule="evenodd" d="M1287.61 580.658L1292.61 581.815C1293.68 574.982 1294.55 568.018 1295.21 561.123L1290.14 560.408C1289.5 567.158 1288.65 573.972 1287.61 580.658Z" fill="#FCFCFC"/>
<path fill-rule="evenodd" clip-rule="evenodd" d="M1291.65 535.518C1291.6 541.355 1291.43 547.232 1291.09 553.041L1296.17 553.485C1296.53 547.406 1296.7 541.254 1296.75 535.15C1295.03 535.566 1293.3 535.692 1291.65 535.518H1291.65Z" fill="#FCFCFC"/>
<path fill-rule="evenodd" clip-rule="evenodd" d="M1245.16 681.204L1249.31 684.799C1252.64 679.108 1255.83 673.263 1258.81 667.432L1254.48 664.156C1251.56 669.878 1248.42 675.614 1245.16 681.204H1245.16Z" fill="#FCFCFC"/>
<path fill-rule="evenodd" clip-rule="evenodd" d="M1068.34 264.016C1063 261.732 1057.54 259.553 1052.1 257.537L1050.61 263.473C1055.98 265.464 1061.38 267.615 1066.65 269.869L1068.34 264.016Z" fill="#FCFCFC"/>
<path fill-rule="evenodd" clip-rule="evenodd" d="M1228.52 702.937L1232.37 707.003C1236.1 701.746 1239.75 696.309 1243.2 690.837L1239.15 687.059C1235.77 692.433 1232.19 697.773 1228.52 702.937Z" fill="#FCFCFC"/>
<path fill-rule="evenodd" clip-rule="evenodd" d="M1209.98 723.028L1213.52 727.493C1217.63 722.654 1221.67 717.647 1225.51 712.602L1221.77 708.385C1218 713.343 1214.03 718.271 1209.98 723.028Z" fill="#FCFCFC"/>
<path fill-rule="evenodd" clip-rule="evenodd" d="M856.912 828.455C862.51 829.382 868.221 830.188 873.883 830.85L874.37 824.672C868.774 824.019 863.131 823.222 857.599 822.305L856.912 828.455Z" fill="#FCFCFC"/>
<path fill-rule="evenodd" clip-rule="evenodd" d="M895.921 236.041C890.255 236.372 884.521 236.845 878.878 237.447L879.32 243.629C884.898 243.037 890.564 242.571 896.166 242.241L895.921 236.041Z" fill="#FCFCFC"/>
<path fill-rule="evenodd" clip-rule="evenodd" d="M866.828 238.68C861.159 239.449 855.46 240.362 849.889 241.394L850.653 247.53C856.158 246.51 861.79 245.609 867.392 244.85L866.828 238.68Z" fill="#FCFCFC"/>
<path fill-rule="evenodd" clip-rule="evenodd" d="M885.951 831.891C891.589 832.386 897.328 832.752 903.012 832.98L903.18 826.78C897.562 826.553 891.889 826.19 886.318 825.703L885.951 831.891Z" fill="#FCFCFC"/>
<path fill-rule="evenodd" clip-rule="evenodd" d="M828.119 822.911C833.683 824.283 839.34 825.531 844.933 826.628L845.74 820.498C840.215 819.417 834.626 818.183 829.13 816.828L828.119 822.911Z" fill="#FCFCFC"/>
<path fill-rule="evenodd" clip-rule="evenodd" d="M799.698 815.24C805.157 817.048 810.735 818.745 816.278 820.288L817.412 814.235C811.935 812.714 806.427 811.037 801.036 809.25L799.698 815.24Z" fill="#FCFCFC"/>
<path fill-rule="evenodd" clip-rule="evenodd" d="M837.938 243.412C832.359 244.614 826.72 245.971 821.174 247.452L822.264 253.513C827.742 252.052 833.313 250.709 838.823 249.526L837.938 243.412Z" fill="#FCFCFC"/>
<path fill-rule="evenodd" clip-rule="evenodd" d="M809.373 250.273C803.841 251.928 798.286 253.733 792.863 255.644L794.278 261.606C799.635 259.718 805.122 257.932 810.588 256.304L809.373 250.273Z" fill="#FCFCFC"/>
<path fill-rule="evenodd" clip-rule="evenodd" d="M1001.35 818.777L1002.26 824.882C1007.86 823.646 1013.5 822.259 1019.01 820.756L1017.9 814.699C1012.46 816.184 1006.89 817.555 1001.35 818.777Z" fill="#FCFCFC"/>
<path fill-rule="evenodd" clip-rule="evenodd" d="M915.169 827.042L915.121 833.248C916.552 833.266 917.986 833.272 919.42 833.272C923.66 833.272 927.961 833.198 932.202 833.048L932.057 826.846C926.446 827.042 920.764 827.104 915.169 827.042Z" fill="#FCFCFC"/>
<path fill-rule="evenodd" clip-rule="evenodd" d="M1040.46 254.05C1035.01 252.21 1029.43 250.485 1023.9 248.914L1022.74 254.959C1028.21 256.508 1033.71 258.217 1039.1 260.03L1040.46 254.05Z" fill="#FCFCFC"/>
<path fill-rule="evenodd" clip-rule="evenodd" d="M972.801 823.599L973.39 829.765C979.04 828.965 984.734 828.022 990.316 826.962L989.531 820.83C984.013 821.88 978.387 822.811 972.801 823.599V823.599Z" fill="#FCFCFC"/>
<path fill-rule="evenodd" clip-rule="evenodd" d="M1012.07 246.233C1006.54 244.841 1000.89 243.559 995.271 242.432L994.441 248.555C999.987 249.668 1005.57 250.933 1011.04 252.31L1012.07 246.233Z" fill="#FCFCFC"/>
<path fill-rule="evenodd" clip-rule="evenodd" d="M1029.56 811.863L1030.8 817.886C1036.32 816.206 1041.87 814.366 1047.29 812.423L1045.85 806.469C1040.5 808.388 1035.02 810.205 1029.56 811.863Z" fill="#FCFCFC"/>
<path fill-rule="evenodd" clip-rule="evenodd" d="M973.68 239.021C974.054 241.084 974.195 243.21 974.111 245.323C977.019 245.743 979.926 246.199 982.81 246.692L983.517 240.548C980.255 239.989 976.967 239.488 973.68 239.021Z" fill="#FCFCFC"/>
<path fill-rule="evenodd" clip-rule="evenodd" d="M944.038 826.344L944.301 832.544C949.983 832.182 955.717 831.68 961.34 831.049L960.879 824.869C955.317 825.491 949.65 825.986 944.038 826.344Z" fill="#FCFCFC"/>
<path fill-rule="evenodd" clip-rule="evenodd" d="M728.822 373.385C728.822 369.19 732.223 365.789 736.418 365.789H1112.03C1116.23 365.789 1119.63 369.19 1119.63 373.385V438.735C1119.63 442.93 1116.23 446.33 1112.03 446.33H736.418C732.223 446.33 728.822 442.93 728.822 438.735V373.385Z" fill="#515151"/>
<path fill-rule="evenodd" clip-rule="evenodd" d="M1106.04 365.789H924.225V446.331H1106.04C1113.54 446.331 1119.63 439.462 1119.63 430.989V381.131C1119.63 372.658 1113.54 365.789 1106.04 365.789Z" fill="#3D3D3D"/>
<path fill-rule="evenodd" clip-rule="evenodd" d="M1099.11 439.93H1094.27V438.011H1099.11C1100.24 438.011 1101.37 437.836 1102.45 437.488L1102.92 439.334C1101.68 439.728 1100.4 439.928 1099.11 439.93V439.93ZM1085.81 439.93H1077.35V438.011H1085.81V439.93ZM1068.89 439.93H1060.43V438.011H1068.89V439.93ZM1051.97 439.93H1043.52V438.011H1051.97V439.93ZM1035.06 439.93H1026.6V438.011H1035.06V439.93ZM1018.14 439.93H1009.68V438.011H1018.14V439.93ZM1001.22 439.93H992.762V438.011H1001.22V439.93ZM984.305 439.93H975.843V438.011H984.305V439.93ZM967.388 439.93H958.927V438.011H967.388V439.93ZM950.466 439.93H942.009V438.011H950.466V439.93ZM933.551 439.93H925.09V438.011H933.551V439.93ZM916.633 439.93H908.174V438.011H916.633V439.93ZM899.715 439.93H891.257V438.011H899.715V439.93ZM882.798 439.93H874.339V438.011H882.798V439.93ZM865.88 439.93H857.421V438.011H865.88V439.93ZM848.962 439.93H840.503V438.011H848.962V439.93ZM832.043 439.93H823.586V438.011H832.043V439.93ZM815.127 439.93H806.668V438.011H815.127V439.93ZM798.208 439.93H789.749V438.011H798.208V439.93ZM781.29 439.93H772.831V438.011H781.29V439.93ZM764.372 439.93H755.913V438.011H764.372V439.93ZM747.342 439.768C744.37 439.284 741.565 437.684 739.443 435.261L740.651 433.911C742.54 436.072 744.937 437.44 747.583 437.87L747.342 439.768ZM1110.21 433.685L1108.86 432.53C1110.47 430.118 1111.33 427.242 1111.33 424.213L1113.03 424.073V424.213C1113.03 427.666 1112.05 430.94 1110.21 433.685ZM735.543 426.293C735.462 425.606 735.423 424.906 735.423 424.213V416.625H737.121V424.213C737.121 424.823 737.157 425.439 737.228 426.043L735.543 426.293ZM1113.03 414.524H1111.33V404.973H1113.03V414.524ZM737.121 407.074H735.423V397.527H737.121V407.074ZM1113.03 395.426H1111.33V387.907C1111.33 387.277 1111.29 386.636 1111.22 386.014L1112.9 385.754C1112.98 386.465 1113.03 387.19 1113.03 387.907V395.426ZM735.423 387.977V387.907C735.423 384.481 736.38 381.226 738.194 378.495L739.554 379.644C737.962 382.044 737.121 384.899 737.121 387.907L735.423 387.977ZM1107.75 378.162C1105.85 376.013 1103.45 374.655 1100.8 374.239L1101.04 372.343C1104.01 372.807 1106.83 374.393 1108.96 376.804L1107.75 378.162ZM745.943 374.649L745.47 372.805C746.725 372.397 748.029 372.191 749.342 372.191H754.115V374.108H749.342C748.188 374.108 747.043 374.29 745.943 374.649V374.649ZM1092.47 374.108H1084.01V372.191H1092.47V374.108ZM1075.55 374.108H1067.1V372.191H1075.55V374.108ZM1058.64 374.108H1050.17V372.191H1058.64V374.108ZM1041.72 374.108H1033.26V372.191H1041.72V374.108ZM1024.8 374.108H1016.34V372.191H1024.8V374.108ZM1007.88 374.108H999.423V372.191H1007.88V374.108ZM990.964 374.108H982.506V372.191H990.964V374.108ZM974.047 374.108H965.59V372.191H974.047V374.108ZM957.129 374.108H948.672V372.191H957.129V374.108ZM940.211 374.108H931.751V372.191H940.211V374.108ZM923.292 374.108H914.835V372.191H923.292V374.108ZM906.376 374.108H897.917V372.191H906.376V374.108ZM889.458 374.108H881V372.191H889.458V374.108ZM872.541 374.108H864.082V372.191H872.541V374.108ZM855.623 374.108H847.164V372.191H855.623V374.108ZM838.705 374.108H830.247V372.191H838.705V374.108ZM821.788 374.108H813.329V372.191H821.788V374.108ZM804.87 374.108H796.411V372.191H804.87V374.108ZM787.952 374.108H779.494V372.191H787.952V374.108ZM771.033 374.108H762.574V372.191H771.033V374.108Z" fill="#D8D8D8"/>
<path d="M731.613 419.789L721.821 402.959V419.789H716.823V395.445H721.957L731.613 412.003V395.445H736.611V419.789H731.613ZM746.591 409.317V415.607H759.783V419.789H741.593V395.445H759.171V399.627H746.591V405.135H758.253V409.317H746.591ZM774.21 399.627V419.789H769.212V399.627H761.8V395.445H781.282V399.627H774.21ZM806.12 419.789H801.632L797.518 400.817L793.574 419.789H789.052L782.184 395.445H787.488L791.262 413.703L795.036 395.445H799.966L803.91 413.737L807.548 395.445H812.852L806.12 419.789ZM826.376 395.071C829.821 395.071 832.586 396.17 834.672 398.369C836.938 400.749 838.072 403.832 838.072 407.617C838.072 411.357 836.938 414.44 834.672 416.865C832.609 419.064 829.844 420.163 826.376 420.163C822.885 420.163 820.108 419.064 818.046 416.865C815.779 414.44 814.646 411.357 814.646 407.617C814.646 403.877 815.779 400.794 818.046 398.369C820.131 396.17 822.908 395.071 826.376 395.071ZM826.376 399.355C824.2 399.355 822.488 400.205 821.242 401.905C820.176 403.378 819.644 405.282 819.644 407.617C819.644 410.292 820.335 412.388 821.718 413.907C822.919 415.222 824.472 415.879 826.376 415.879C828.552 415.879 830.252 415.029 831.476 413.329C832.541 411.856 833.074 409.952 833.074 407.617C833.074 404.942 832.382 402.846 831 401.327C829.798 400.012 828.257 399.355 826.376 399.355ZM846.897 410.133V419.789H841.899V395.445H854.955C857.018 395.445 858.593 396 859.681 397.111C860.905 398.358 861.517 400.001 861.517 402.041C861.517 404.988 860.135 406.994 857.369 408.059C858.933 408.671 859.885 409.43 860.225 410.337C860.475 410.994 860.656 413.182 860.769 416.899C860.792 417.828 861.143 418.486 861.823 418.871V419.789H856.451C855.953 418.86 855.703 417.488 855.703 415.675C855.703 415.222 855.715 414.666 855.737 414.009C855.737 413.556 855.737 413.227 855.737 413.023C855.737 411.096 854.706 410.133 852.643 410.133H846.897ZM846.897 405.951H852.949C854.219 405.951 855.103 405.747 855.601 405.339C856.213 404.818 856.519 403.956 856.519 402.755C856.519 401.599 856.213 400.772 855.601 400.273C855.08 399.842 854.196 399.627 852.949 399.627H846.897V405.951ZM870.903 411.663V419.789H865.905V395.445H870.903V406.155L880.423 395.445H886.339L876.615 405.917L887.359 419.789H881.375L873.419 409.045L870.903 411.663ZM901.317 411.119V419.789H896.319V395.445H907.063C909.783 395.445 911.812 396.182 913.149 397.655C914.328 398.947 914.917 400.726 914.917 402.993C914.917 405.645 914.169 407.708 912.673 409.181C911.359 410.473 909.659 411.119 907.573 411.119H901.317ZM901.317 406.937H905.975C908.605 406.937 909.919 405.724 909.919 403.299C909.919 400.851 908.605 399.627 905.975 399.627H901.317V406.937ZM923.63 410.133V419.789H918.632V395.445H931.688C933.75 395.445 935.326 396 936.414 397.111C937.638 398.358 938.25 400.001 938.25 402.041C938.25 404.988 936.867 406.994 934.102 408.059C935.666 408.671 936.618 409.43 936.958 410.337C937.207 410.994 937.388 413.182 937.502 416.899C937.524 417.828 937.876 418.486 938.556 418.871V419.789H933.184C932.685 418.86 932.436 417.488 932.436 415.675C932.436 415.222 932.447 414.666 932.47 414.009C932.47 413.556 932.47 413.227 932.47 413.023C932.47 411.096 931.438 410.133 929.376 410.133H923.63ZM923.63 405.951H929.682C930.951 405.951 931.835 405.747 932.334 405.339C932.946 404.818 933.252 403.956 933.252 402.755C933.252 401.599 932.946 400.772 932.334 400.273C931.812 399.842 930.928 399.627 929.682 399.627H923.63V405.951ZM953.212 395.071C956.657 395.071 959.422 396.17 961.508 398.369C963.774 400.749 964.908 403.832 964.908 407.617C964.908 411.357 963.774 414.44 961.508 416.865C959.445 419.064 956.68 420.163 953.212 420.163C949.721 420.163 946.944 419.064 944.882 416.865C942.615 414.44 941.482 411.357 941.482 407.617C941.482 403.877 942.615 400.794 944.882 398.369C946.967 396.17 949.744 395.071 953.212 395.071ZM953.212 399.355C951.036 399.355 949.324 400.205 948.078 401.905C947.012 403.378 946.48 405.282 946.48 407.617C946.48 410.292 947.171 412.388 948.554 413.907C949.755 415.222 951.308 415.879 953.212 415.879C955.388 415.879 957.088 415.029 958.312 413.329C959.377 411.856 959.91 409.952 959.91 407.617C959.91 404.942 959.218 402.846 957.836 401.327C956.634 400.012 955.093 399.355 953.212 399.355ZM979.173 399.627V419.789H974.175V399.627H966.763V395.445H986.245V399.627H979.173ZM994.253 409.317V415.607H1007.44V419.789H989.255V395.445H1006.83V399.627H994.253V405.135H1005.91V409.317H994.253ZM1031.63 403.571H1026.87C1026.21 400.76 1024.48 399.355 1021.67 399.355C1019.56 399.355 1017.94 400.194 1016.81 401.871C1015.83 403.344 1015.34 405.305 1015.34 407.753C1015.34 410.518 1015.96 412.626 1017.18 414.077C1018.25 415.324 1019.69 415.947 1021.5 415.947C1023.06 415.947 1024.31 415.539 1025.24 414.723C1026.17 413.907 1026.71 412.74 1026.87 411.221H1031.73C1031.57 414.168 1030.44 416.446 1028.33 418.055C1026.52 419.46 1024.2 420.163 1021.36 420.163C1017.74 420.163 1014.93 418.894 1012.93 416.355C1011.21 414.156 1010.35 411.255 1010.35 407.651C1010.35 403.526 1011.48 400.33 1013.75 398.063C1015.72 396.068 1018.29 395.071 1021.46 395.071C1025.23 395.071 1028.07 396.329 1030 398.845C1030.95 400.092 1031.49 401.667 1031.63 403.571ZM1045.98 399.627V419.789H1040.98V399.627H1033.57V395.445H1053.05V399.627H1045.98ZM1061.06 395.445V419.789H1056.06V395.445H1061.06ZM1076.63 395.071C1080.07 395.071 1082.84 396.17 1084.92 398.369C1087.19 400.749 1088.32 403.832 1088.32 407.617C1088.32 411.357 1087.19 414.44 1084.92 416.865C1082.86 419.064 1080.1 420.163 1076.63 420.163C1073.14 420.163 1070.36 419.064 1068.3 416.865C1066.03 414.44 1064.9 411.357 1064.9 407.617C1064.9 403.877 1066.03 400.794 1068.3 398.369C1070.38 396.17 1073.16 395.071 1076.63 395.071ZM1076.63 399.355C1074.45 399.355 1072.74 400.205 1071.49 401.905C1070.43 403.378 1069.9 405.282 1069.9 407.617C1069.9 410.292 1070.59 412.388 1071.97 413.907C1073.17 415.222 1074.72 415.879 1076.63 415.879C1078.8 415.879 1080.5 415.029 1081.73 413.329C1082.79 411.856 1083.33 409.952 1083.33 407.617C1083.33 404.942 1082.63 402.846 1081.25 401.327C1080.05 400.012 1078.51 399.355 1076.63 399.355ZM1106.94 419.789L1097.15 402.959V419.789H1092.15V395.445H1097.29L1106.94 412.003V395.445H1111.94V419.789H1106.94Z" fill="white"/>
<path fill-rule="evenodd" clip-rule="evenodd" d="M649.191 349.499C649.191 347.079 640.34 345.67 639.939 343.383C639.526 341.03 647.219 335.917 646.423 333.745C645.616 331.542 636.962 334.069 635.799 332.107C634.629 330.134 639.998 322.076 638.515 320.399C637.03 318.723 629.892 324.788 628.142 323.465C626.405 322.152 628.648 312.387 626.693 311.474C624.773 310.573 620.241 319.258 618.153 318.792C616.128 318.339 614.881 308.346 612.738 308.346C610.593 308.346 609.347 318.339 607.322 318.792C605.234 319.258 600.703 310.573 598.785 311.47C596.831 312.387 599.071 322.152 597.334 323.465C595.584 324.788 588.444 318.723 586.962 320.399C585.477 322.076 590.848 330.134 589.678 332.107C588.513 334.067 579.863 331.542 579.053 333.745C578.257 335.915 585.95 341.028 585.536 343.383C585.134 345.67 576.285 347.079 576.285 349.499C576.285 351.921 585.134 353.326 585.536 355.611C585.95 357.968 578.257 363.086 579.053 365.249C579.863 367.458 588.513 364.928 589.676 366.889C590.846 368.862 585.477 376.924 586.961 378.599C588.444 380.271 595.584 374.208 597.334 375.533C599.071 376.844 596.829 386.611 598.785 387.524C600.703 388.425 605.234 379.742 607.322 380.209C609.347 380.659 610.593 390.65 612.738 390.65C614.881 390.65 616.128 380.659 618.153 380.209C620.239 379.742 624.771 388.425 626.693 387.526C628.645 386.615 626.405 376.844 628.142 375.533C629.892 374.208 637.03 380.271 638.515 378.599C639.998 376.924 634.629 368.862 635.797 366.891C636.962 364.928 645.616 367.458 646.423 365.249C647.219 363.086 639.526 357.968 639.939 355.611C640.34 353.326 649.191 351.921 649.191 349.499L649.191 349.499ZM612.738 368.022C603.674 368.022 596.33 359.729 596.33 349.499C596.33 339.267 603.674 330.972 612.738 330.972C621.8 330.972 629.149 339.267 629.149 349.499C629.149 359.729 621.8 368.022 612.738 368.022Z" fill="#F1592A"/>
<path fill-rule="evenodd" clip-rule="evenodd" d="M649.191 349.499C649.191 347.079 640.34 345.67 639.939 343.383C639.526 341.03 647.219 335.917 646.423 333.745C645.616 331.542 636.962 334.069 635.799 332.107C634.629 330.134 639.998 322.076 638.515 320.399C637.03 318.723 629.892 324.788 628.142 323.465C626.405 322.152 628.648 312.387 626.693 311.474C624.773 310.573 620.241 319.258 618.154 318.792C616.128 318.339 614.881 308.346 612.738 308.346C612.7 308.346 612.663 308.374 612.627 308.38V330.98C612.663 330.98 612.7 330.972 612.738 330.972C621.8 330.972 629.149 339.267 629.149 349.499C629.149 359.729 621.8 368.022 612.738 368.022C612.7 368.022 612.663 368.016 612.627 368.016V390.62C612.663 390.624 612.7 390.65 612.738 390.65C614.881 390.65 616.128 380.659 618.154 380.209C620.24 379.742 624.771 388.425 626.693 387.526C628.645 386.615 626.405 376.844 628.142 375.533C629.892 374.208 637.03 380.271 638.515 378.599C639.998 376.924 634.629 368.862 635.798 366.891C636.962 364.928 645.616 367.458 646.423 365.249C647.219 363.086 639.526 357.968 639.939 355.611C640.34 353.326 649.191 351.921 649.191 349.499V349.499Z" fill="#BC3C1B"/>
<path fill-rule="evenodd" clip-rule="evenodd" d="M594.129 398.796C594.129 396.376 585.281 394.967 584.88 392.682C584.468 390.327 592.16 385.213 591.362 383.042C590.551 380.839 581.901 383.365 580.738 381.406C579.568 379.431 584.939 371.37 583.456 369.698C581.971 368.022 574.831 374.085 573.083 372.762C571.345 371.449 573.587 361.684 571.632 360.771C569.712 359.87 565.18 368.557 563.092 368.086C561.065 367.638 559.822 357.643 557.679 357.643C555.535 357.643 554.286 367.638 552.263 368.086C550.175 368.557 545.643 359.87 543.722 360.769C541.77 361.684 544.008 371.449 542.274 372.762C540.525 374.085 533.384 368.022 531.901 369.698C530.418 371.37 535.787 379.431 534.615 381.406C533.452 383.365 524.8 380.839 523.992 383.042C523.197 385.211 530.889 390.327 530.475 392.682C530.075 394.967 521.224 396.376 521.224 398.796C521.224 401.218 530.075 402.625 530.475 404.91C530.889 407.269 523.197 412.382 523.992 414.548C524.8 416.753 533.452 414.226 534.615 416.186C535.787 418.159 530.416 426.221 531.901 427.898C533.384 429.568 540.525 423.507 542.274 424.832C544.008 426.141 541.768 435.908 543.722 436.821C545.643 437.726 550.173 429.039 552.263 429.503C554.286 429.956 555.535 439.947 557.679 439.947C559.822 439.947 561.065 429.956 563.092 429.503C565.18 429.039 569.71 437.726 571.632 436.825C573.584 435.912 571.345 426.141 573.083 424.832C574.831 423.507 581.971 429.568 583.454 427.898C584.939 426.221 579.566 418.159 580.738 416.19C581.901 414.226 590.551 416.759 591.362 414.548C592.16 412.382 584.468 407.269 584.88 404.91C585.281 402.625 594.129 401.218 594.129 398.796ZM557.679 417.319C548.617 417.319 541.271 409.028 541.271 398.796C541.271 388.566 548.617 380.269 557.679 380.269C566.74 380.269 574.086 388.566 574.086 398.796C574.086 409.028 566.74 417.319 557.679 417.319Z" fill="#F1592A"/>
<path fill-rule="evenodd" clip-rule="evenodd" d="M594.13 398.796C594.13 396.376 585.281 394.967 584.88 392.682C584.469 390.327 592.16 385.213 591.362 383.042C590.552 380.839 581.901 383.365 580.738 381.406C579.568 379.431 584.939 371.37 583.456 369.698C581.971 368.022 574.831 374.085 573.083 372.762C571.346 371.449 573.587 361.684 571.632 360.771C569.712 359.87 565.18 368.557 563.093 368.086C561.066 367.638 559.822 357.643 557.679 357.643C557.639 357.643 557.602 357.671 557.566 357.675V380.277C557.602 380.277 557.639 380.269 557.679 380.269C566.74 380.269 574.086 388.566 574.086 398.796C574.086 409.028 566.74 417.319 557.679 417.319C557.639 417.319 557.602 417.313 557.566 417.313V439.915C557.602 439.921 557.639 439.947 557.679 439.947C559.822 439.947 561.065 429.956 563.093 429.503C565.18 429.039 569.71 437.726 571.632 436.825C573.584 435.912 571.346 426.141 573.083 424.832C574.831 423.507 581.971 429.568 583.454 427.898C584.939 426.221 579.566 418.159 580.738 416.19C581.901 414.226 590.552 416.759 591.362 414.548C592.16 412.382 584.469 407.269 584.88 404.91C585.281 402.625 594.13 401.218 594.13 398.796V398.796Z" fill="#BC3C1B"/>
<path fill-rule="evenodd" clip-rule="evenodd" d="M640.202 420.804C640.202 419.184 634.273 418.234 634.004 416.708C633.727 415.128 638.883 411.701 638.348 410.249C637.806 408.772 632.008 410.465 631.23 409.15C630.444 407.825 634.044 402.426 633.051 401.303C632.056 400.182 627.27 404.244 626.1 403.361C624.934 402.477 626.438 395.933 625.129 395.323C623.841 394.719 620.804 400.536 619.405 400.225C618.047 399.926 617.212 393.227 615.775 393.227C614.339 393.227 613.503 399.926 612.145 400.225C610.748 400.536 607.71 394.719 606.424 395.319C605.116 395.933 606.615 402.477 605.452 403.361C604.28 404.244 599.496 400.182 598.503 401.303C597.509 402.426 601.107 407.825 600.321 409.15C599.543 410.463 593.744 408.772 593.202 410.249C592.667 411.701 597.822 415.128 597.548 416.708C597.278 418.234 591.347 419.184 591.347 420.804C591.347 422.425 597.278 423.371 597.548 424.903C597.822 426.479 592.667 429.908 593.202 431.36C593.744 432.839 599.543 431.142 600.321 432.457C601.107 433.778 597.507 439.179 598.503 440.308C599.496 441.425 604.28 437.363 605.452 438.248C606.615 439.128 605.114 445.67 606.424 446.286C607.71 446.888 610.748 441.069 612.145 441.382C613.503 441.685 614.339 448.38 615.775 448.38C617.212 448.38 618.047 441.685 619.405 441.382C620.804 441.069 623.841 446.888 625.129 446.288C626.435 445.674 624.934 439.128 626.1 438.248C627.27 437.363 632.056 441.425 633.049 440.308C634.044 439.179 630.444 433.778 631.228 432.457C632.008 431.142 637.806 432.841 638.348 431.36C638.883 429.908 633.727 426.479 634.004 424.903C634.273 423.371 640.202 422.425 640.202 420.804V420.804ZM615.775 433.217C609.701 433.217 604.78 427.66 604.78 420.804C604.78 413.949 609.701 408.39 615.775 408.39C621.849 408.39 626.771 413.949 626.771 420.804C626.771 427.66 621.849 433.217 615.775 433.217Z" fill="#F1592A"/>
<path fill-rule="evenodd" clip-rule="evenodd" d="M640.202 420.804C640.202 419.184 634.273 418.234 634.004 416.708C633.727 415.128 638.883 411.701 638.348 410.249C637.806 408.772 632.008 410.465 631.23 409.15C630.444 407.825 634.044 402.426 633.051 401.303C632.056 400.182 627.27 404.244 626.1 403.361C624.934 402.477 626.438 395.933 625.129 395.323C623.841 394.719 620.805 400.536 619.405 400.225C618.048 399.926 617.212 393.227 615.775 393.227C615.75 393.227 615.727 393.245 615.702 393.249V408.395C615.727 408.395 615.75 408.39 615.775 408.39C621.849 408.39 626.771 413.949 626.771 420.804C626.771 427.66 621.849 433.217 615.775 433.217C615.75 433.217 615.727 433.213 615.702 433.213V448.36C615.727 448.364 615.75 448.38 615.775 448.38C617.212 448.38 618.048 441.685 619.405 441.382C620.805 441.069 623.841 446.888 625.129 446.288C626.435 445.674 624.934 439.128 626.1 438.248C627.27 437.363 632.056 441.425 633.049 440.308C634.044 439.179 630.444 433.778 631.228 432.457C632.008 431.142 637.806 432.841 638.348 431.361C638.883 429.908 633.727 426.479 634.004 424.904C634.273 423.371 640.202 422.425 640.202 420.804V420.804Z" fill="#BC3C1B"/>
<path fill-rule="evenodd" clip-rule="evenodd" d="M1122.39 297.194C1126.23 297.208 1129.33 300.706 1129.38 305.03L1129.37 310.356C1129.37 310.397 1129.37 310.437 1129.37 310.479C1129.42 314.804 1132.53 318.296 1136.38 318.308L1162.75 318.401C1166.59 318.415 1169.71 314.939 1169.78 310.613C1169.78 310.576 1169.79 310.534 1169.79 310.493L1169.8 305.163L1169.92 260.924C1169.94 256.541 1166.8 252.983 1162.92 252.966L1136.55 252.874L1079.22 252.682C1075.34 252.668 1072.18 256.206 1072.17 260.589L1072.07 297.026L1122.39 297.194Z" fill="#BF7E1F"/>
<g style="mix-blend-mode:multiply">
<path fill-rule="evenodd" clip-rule="evenodd" d="M1167.93 268.923L1150.85 252.927L1136.55 252.875L1101.37 252.76L1086.89 272.464L1113.27 297.163L1122.39 297.195C1126.23 297.209 1129.33 300.707 1129.38 305.032L1129.37 310.357C1129.37 310.398 1129.37 310.438 1129.37 310.481C1129.38 311.182 1129.48 311.848 1129.64 312.488L1133.35 315.978L1167.93 268.923Z" fill="#A5A5A5"/>
</g>
<path fill-rule="evenodd" clip-rule="evenodd" d="M1084.27 267.499L1118.85 220.443L1165.31 263.952L1130.73 311.008L1084.27 267.499Z" fill="#F9F9F9"/>
<path fill-rule="evenodd" clip-rule="evenodd" d="M1165.31 263.951L1141.63 241.777L1108.04 289.751L1130.73 311.009L1165.31 263.951Z" fill="#E5E5E5"/>
<g style="mix-blend-mode:multiply">
<path fill-rule="evenodd" clip-rule="evenodd" d="M1124.83 281.838C1120.98 281.824 1117.88 278.332 1117.83 274.009L1117.84 268.679C1117.84 268.635 1117.84 268.595 1117.83 268.556C1117.79 264.232 1114.68 260.73 1110.84 260.724L1084.47 260.633C1080.62 260.615 1077.5 264.093 1077.43 268.417C1077.43 268.455 1077.42 268.496 1077.42 268.534L1077.41 273.87L1077.34 297.044L1122.39 297.195C1126.23 297.21 1129.33 300.708 1129.38 305.032L1129.37 310.358C1129.37 310.398 1129.37 310.439 1129.38 310.481C1129.42 314.805 1132.53 318.297 1136.38 318.309L1162.75 318.402C1166.59 318.416 1169.71 314.941 1169.78 310.614C1169.79 310.578 1169.79 310.536 1169.79 310.495L1169.8 305.165L1169.87 281.991L1124.83 281.838Z" fill="#A5A5A5"/>
</g>
<path fill-rule="evenodd" clip-rule="evenodd" d="M1119.56 279.832C1115.72 279.822 1112.61 276.328 1112.57 272.007L1112.58 266.671C1112.58 266.635 1112.58 266.587 1112.57 266.55C1112.52 262.224 1109.41 258.732 1105.57 258.718L1079.2 258.629C1075.36 258.617 1072.23 262.087 1072.16 266.413C1072.16 266.453 1072.16 266.496 1072.15 266.536L1072.14 271.868L1072.02 316.103C1072.01 320.486 1075.15 324.047 1079.03 324.057L1105.4 324.15L1162.73 324.348C1166.61 324.36 1169.76 320.823 1169.78 316.443L1169.87 280.003L1119.56 279.832Z" fill="#EFAB3C"/>
<path fill-rule="evenodd" clip-rule="evenodd" d="M1120.82 279.836L1119.56 279.832C1115.72 279.822 1112.61 276.328 1112.57 272.007L1112.58 266.671C1112.58 266.635 1112.58 266.587 1112.57 266.55C1112.52 262.224 1109.41 258.732 1105.57 258.718L1079.2 258.629C1075.36 258.617 1072.23 262.087 1072.16 266.413C1072.16 266.453 1072.16 266.496 1072.15 266.536L1072.14 271.868L1072.02 316.103C1072.01 320.486 1075.15 324.047 1079.03 324.057L1105.4 324.15L1120.74 324.204L1120.82 279.836Z" fill="#FFC152"/>
<path fill-rule="evenodd" clip-rule="evenodd" d="M1282.64 517.693H1296.7V533.786H1282.64V517.693Z" fill="#383838"/>
<path opacity="0.5" fill-rule="evenodd" clip-rule="evenodd" d="M1319.9 484.625C1319.72 503.456 1306.04 518.56 1289.36 518.354C1272.68 518.148 1259.3 502.711 1259.48 483.881C1259.66 465.048 1273.33 449.946 1290.02 450.152C1306.7 450.356 1320.08 465.791 1319.9 484.625Z" fill="white"/>
<path fill-rule="evenodd" clip-rule="evenodd" d="M1289.32 522.417C1270.68 522.188 1255.68 504.882 1255.88 483.834C1256.08 462.791 1271.42 445.858 1290.06 446.082C1308.7 446.319 1323.7 463.623 1323.5 484.669C1323.29 505.714 1307.96 522.647 1289.32 522.417V522.417ZM1289.98 454.216C1275.31 454.036 1263.24 467.36 1263.08 483.923C1262.92 500.487 1274.73 514.106 1289.4 514.289C1304.07 514.471 1316.14 501.141 1316.3 484.584C1316.46 468.018 1304.65 454.393 1289.98 454.216Z" fill="#4C4C4C"/>
<path fill-rule="evenodd" clip-rule="evenodd" d="M1300.85 579.617C1300.85 582.62 1298.7 585.046 1296.04 585.042L1283.26 585.036C1280.6 585.036 1278.45 582.6 1278.45 579.609L1278.47 536.161C1278.47 533.164 1280.63 530.73 1283.28 530.736L1296.06 530.742C1298.72 530.742 1300.87 533.176 1300.87 536.175L1300.85 579.617Z" fill="#E82E2E"/>
<path fill-rule="evenodd" clip-rule="evenodd" d="M1290.55 517.697L1290.6 533.786L1296.7 533.79L1296.71 517.697H1290.55Z" fill="#1E1E1E"/>
<path fill-rule="evenodd" clip-rule="evenodd" d="M1296.06 530.742L1290.59 530.736L1290.76 585.04L1296.04 585.042C1298.7 585.046 1300.85 582.62 1300.85 579.617L1300.87 536.175C1300.87 533.176 1298.72 530.742 1296.06 530.742H1296.06Z" fill="#B72121"/>
<path fill-rule="evenodd" clip-rule="evenodd" d="M1290.31 446.102L1290.34 454.239C1304.84 454.639 1316.46 468.153 1316.3 484.583C1316.14 500.71 1304.68 513.731 1290.53 514.236L1290.56 522.361C1308.63 521.838 1323.3 505.236 1323.5 484.668C1323.7 463.719 1308.83 446.489 1290.31 446.102H1290.31Z" fill="#383838"/>
<path fill-rule="evenodd" clip-rule="evenodd" d="M1288.46 461.952C1288.25 460.94 1287.39 460.293 1286.49 460.419L1286.49 460.398C1286.32 460.431 1268.49 463.973 1268.23 486.251L1268.24 486.249C1268.24 486.418 1268.25 486.582 1268.28 486.751C1268.5 487.834 1269.47 488.509 1270.43 488.258C1271.2 488.058 1271.73 487.333 1271.81 486.505H1271.81C1271.81 486.43 1271.82 486.366 1271.82 486.289C1271.82 486.277 1271.83 486.259 1271.82 486.249C1272.17 467.665 1286.49 464.476 1287.1 464.355C1288.07 464.111 1288.67 463.03 1288.46 461.952L1288.46 461.952Z" fill="#999999"/>
<path fill-rule="evenodd" clip-rule="evenodd" d="M590.998 483.345C590.92 483.44 590.837 483.535 590.735 483.626L545.566 523.844C544.702 524.617 543.294 524.611 542.43 523.836L497.443 483.357C497.347 483.27 497.261 483.171 497.186 483.072C496.695 483.684 496.384 484.48 496.38 485.371L496.248 544.463C496.244 546.355 497.599 547.888 499.272 547.894L588.621 548.151C590.292 548.155 591.653 546.628 591.659 544.74L591.791 485.645C591.793 484.757 591.489 483.951 590.998 483.345Z" fill="white"/>
<path fill-rule="evenodd" clip-rule="evenodd" d="M590.999 483.344C590.92 483.439 590.838 483.534 590.736 483.624L545.566 523.843C545.132 524.232 544.557 524.42 543.985 524.418L543.949 548.02L588.621 548.15C590.292 548.154 591.653 546.627 591.659 544.738L591.791 485.644C591.793 484.756 591.489 483.95 590.999 483.344V483.344Z" fill="#D8D8D8"/>
<g style="mix-blend-mode:multiply" opacity="0.5">
<path fill-rule="evenodd" clip-rule="evenodd" d="M591.791 485.645C591.793 484.757 591.489 483.951 590.999 483.345C590.92 483.44 590.838 483.535 590.736 483.626L545.567 523.844C544.702 524.617 543.294 524.611 542.43 523.836L497.444 483.357C497.347 483.27 497.261 483.171 497.186 483.072C496.696 483.684 496.384 484.48 496.381 485.371L496.379 486.619L542.117 527.768C543.144 528.693 544.817 528.699 545.849 527.778L591.79 486.875L591.791 485.645Z" fill="#BCBCBC"/>
</g>
<path fill-rule="evenodd" clip-rule="evenodd" d="M542.423 523.851C543.287 524.631 544.693 524.635 545.561 523.859L590.729 483.645C590.827 483.552 590.913 483.459 590.992 483.36C590.435 482.673 589.646 482.237 588.757 482.235L499.412 481.977C498.526 481.973 497.733 482.407 497.177 483.089C497.256 483.188 497.34 483.287 497.436 483.374L542.423 523.851Z" fill="white"/>
<path fill-rule="evenodd" clip-rule="evenodd" d="M588.757 482.235L544.046 482.104L543.985 524.434C544.554 524.438 545.125 524.251 545.561 523.859L590.729 483.645C590.827 483.552 590.913 483.459 590.992 483.36C590.435 482.673 589.646 482.237 588.757 482.235Z" fill="#D8D8D8"/>
<path fill-rule="evenodd" clip-rule="evenodd" d="M1233.05 701.707L1266.54 701.662L1266.58 729.534L1233.08 729.579L1233.05 701.707Z" fill="#1C1C1C"/>
<path fill-rule="evenodd" clip-rule="evenodd" d="M1250.52 701.682L1266.54 701.659L1266.58 729.534L1250.56 729.557L1250.52 701.682Z" fill="#0C0C0C"/>
<path fill-rule="evenodd" clip-rule="evenodd" d="M1335.97 709.808C1335.97 711.674 1334.63 713.189 1332.98 713.191L1166.64 713.442C1164.98 713.446 1163.64 711.935 1163.64 710.067L1163.51 598.327C1163.5 596.461 1164.84 594.946 1166.5 594.942L1332.84 594.691C1334.49 594.687 1335.83 596.198 1335.84 598.066L1335.97 709.808Z" fill="#3D3D3D"/>
<path fill-rule="evenodd" clip-rule="evenodd" d="M1332.84 594.691L1250.39 594.815L1250.53 713.314L1332.98 713.191C1334.63 713.189 1335.97 711.674 1335.97 709.808L1335.84 598.066C1335.83 596.198 1334.49 594.687 1332.84 594.691V594.691Z" fill="#2B2B2B"/>
<path fill-rule="evenodd" clip-rule="evenodd" d="M1163.63 701.809L1163.64 710.066C1163.64 711.934 1164.98 713.445 1166.64 713.441L1332.98 713.19C1334.63 713.188 1335.97 711.674 1335.97 709.807L1335.96 701.551L1163.63 701.809Z" fill="#1C1C1C"/>
<path fill-rule="evenodd" clip-rule="evenodd" d="M1250.52 701.678L1250.53 713.314L1332.98 713.19C1334.63 713.188 1335.97 711.674 1335.97 709.807L1335.96 701.551L1250.52 701.678Z" fill="#0C0C0C"/>
<path fill-rule="evenodd" clip-rule="evenodd" d="M1166.97 603.508L1332.37 603.286L1332.49 693.387L1167.09 693.609L1166.97 603.508Z" fill="#F9F9F9"/>
<path fill-rule="evenodd" clip-rule="evenodd" d="M1250.4 603.383L1332.37 603.273L1332.49 693.388L1250.52 693.499L1250.4 603.383Z" fill="#EAEAEA"/>
<path fill-rule="evenodd" clip-rule="evenodd" d="M1324.53 707.696C1324.53 708.782 1323.75 709.669 1322.78 709.669C1321.82 709.669 1321.03 708.789 1321.03 707.7C1321.03 706.609 1321.81 705.727 1322.78 705.725C1323.74 705.723 1324.52 706.605 1324.53 707.696Z" fill="#FFE000"/>
<path fill-rule="evenodd" clip-rule="evenodd" d="M1289.69 735.839L1289.68 729.928C1289.68 728.057 1288.34 726.547 1286.69 726.551L1212.96 726.662C1211.31 726.666 1209.97 728.181 1209.97 730.047L1209.98 735.961L1289.69 735.839Z" fill="#1C1C1C"/>
<path fill-rule="evenodd" clip-rule="evenodd" d="M1286.69 726.551L1212.96 726.662C1211.31 726.666 1209.97 728.181 1209.97 730.047L1209.97 733.002C1209.97 731.133 1211.31 729.619 1212.97 729.613L1286.69 729.504C1288.35 729.499 1289.69 731.014 1289.69 732.88L1289.68 729.928C1289.68 728.057 1288.34 726.547 1286.69 726.551L1286.69 726.551Z" fill="#3D3D3D"/>
<path fill-rule="evenodd" clip-rule="evenodd" d="M1202.88 615.16L1216.02 615.143L1216.11 681.958L1202.97 681.976L1202.88 615.16Z" fill="#E82E2E"/>
<path fill-rule="evenodd" clip-rule="evenodd" d="M1226.81 652.225L1239.95 652.207L1239.99 681.924L1226.85 681.942L1226.81 652.225Z" fill="#FFEA50"/>
<path fill-rule="evenodd" clip-rule="evenodd" d="M1250.67 633.355L1263.81 633.336L1263.88 681.885L1250.74 681.905L1250.67 633.355Z" fill="#1E384C"/>
<path fill-rule="evenodd" clip-rule="evenodd" d="M1274.55 637.754L1287.7 637.733L1287.77 681.849L1274.63 681.87L1274.55 637.754Z" fill="#5FBBE0"/>
<path fill-rule="evenodd" clip-rule="evenodd" d="M1298.08 685.96L1199 686.11L1198.91 611.162H1200.72L1200.81 684.061L1298.08 683.915L1298.08 685.96Z" fill="#878787"/>
<path fill-rule="evenodd" clip-rule="evenodd" d="M723.668 319.947L724.168 320.947L724.668 319.947C724.508 319.947 724.344 319.97 724.172 319.97C724 319.97 723.832 319.947 723.668 319.947Z" fill="#FCFCFC"/>
<path fill-rule="evenodd" clip-rule="evenodd" d="M737.555 301.668C737.544 293.167 731.435 286.271 723.899 286.271C716.362 286.271 710.25 293.167 710.241 301.668V301.692C710.241 310.132 716.247 316.987 723.7 317.104C723.767 317.106 723.833 317.112 723.899 317.112C723.963 317.112 724.028 317.106 724.092 317.104C731.546 316.987 737.555 310.132 737.555 301.692V301.668Z" fill="#25485E"/>
<path fill-rule="evenodd" clip-rule="evenodd" d="M723.899 265.746C711.27 265.746 700.347 274.096 695.205 286.157C695.084 286.391 694.983 286.638 694.894 286.892C694.889 286.91 694.881 286.923 694.876 286.937L694.878 286.943C694.674 287.545 694.554 288.193 694.554 288.878C694.554 291.887 696.713 294.323 699.379 294.323C699.957 294.323 700.512 294.198 701.025 293.988C702.077 293.557 702.954 292.729 703.517 291.665C703.689 291.336 703.832 290.99 703.941 290.625C707.572 282.32 715.152 276.59 723.899 276.59C732.803 276.59 740.496 282.536 744.042 291.089C744.16 291.37 744.273 291.655 744.382 291.944C744.876 292.939 745.64 293.741 746.561 294.222C747.18 294.551 747.869 294.737 748.595 294.737C751.258 294.737 753.419 292.299 753.419 289.294C753.419 288.29 753.174 287.359 752.757 286.551C747.685 274.281 736.66 265.746 723.899 265.746V265.746Z" fill="#25485E"/>
<path fill-rule="evenodd" clip-rule="evenodd" d="M764.47 271.54C764.456 271.514 764.443 271.493 764.429 271.463C764.348 271.3 764.259 271.142 764.161 270.986C755.872 256.01 740.632 244.969 723.899 244.969C706.954 244.969 692.083 255.182 683.866 270.439L683.88 270.455C683.279 271.362 682.925 272.485 682.925 273.707C682.925 276.712 685.079 279.148 687.747 279.148C688.799 279.148 689.77 278.764 690.563 278.118C690.992 277.769 691.368 277.342 691.676 276.858C691.811 276.583 691.949 276.321 692.094 276.052C698.63 263.928 710.434 255.806 723.899 255.806C737.396 255.806 749.225 263.972 755.748 276.143C755.988 276.583 756.213 277.033 756.439 277.486C756.636 277.769 756.857 278.033 757.101 278.27C757.943 279.077 759.035 279.568 760.225 279.568C762.892 279.568 765.05 277.126 765.05 274.121C765.05 273.182 764.833 272.303 764.459 271.53L764.47 271.54Z" fill="#25485E"/>
<path fill-rule="evenodd" clip-rule="evenodd" d="M774.43 254.526C763.327 236.444 744.817 224.578 723.899 224.578C703.034 224.578 684.571 236.383 673.457 254.377C672.765 255.32 672.346 256.53 672.346 257.857C672.346 260.86 674.504 263.298 677.171 263.298C678.255 263.298 679.257 262.89 680.061 262.203C680.393 261.924 680.69 261.601 680.95 261.232C681.071 261.03 681.193 260.83 681.315 260.628C690.686 245.409 706.271 235.42 723.899 235.42C741.486 235.42 757.038 245.365 766.413 260.527C766.721 261.02 766.959 261.411 767.248 261.914C767.402 262.104 767.506 262.239 767.61 262.344C768.462 263.199 769.578 263.718 770.803 263.718C773.467 263.718 775.625 261.276 775.625 258.269C775.625 256.857 775.103 255.641 774.43 254.526L774.43 254.526Z" fill="#25485E"/>
<path fill-rule="evenodd" clip-rule="evenodd" d="M737.555 301.667C737.544 293.215 731.5 286.358 724.022 286.277V317.106L724.092 317.104C731.545 316.987 737.555 310.132 737.555 301.692V301.667Z" fill="#162B38"/>
<path fill-rule="evenodd" clip-rule="evenodd" d="M752.757 286.551C747.703 274.322 736.734 265.809 724.022 265.752V276.594C732.876 276.65 740.512 282.578 744.042 291.089C744.16 291.37 744.273 291.655 744.382 291.943C744.876 292.939 745.64 293.741 746.561 294.222C747.18 294.551 747.869 294.737 748.595 294.737C751.257 294.737 753.419 292.299 753.419 289.294C753.419 288.29 753.174 287.359 752.757 286.551Z" fill="#162B38"/>
<path fill-rule="evenodd" clip-rule="evenodd" d="M764.459 271.53L764.47 271.54C764.456 271.513 764.443 271.493 764.429 271.463C764.348 271.299 764.259 271.142 764.16 270.986C755.889 256.049 740.707 245.027 724.022 244.977V255.812C737.465 255.865 749.247 264.01 755.748 276.142C755.988 276.583 756.213 277.033 756.439 277.486C756.635 277.768 756.857 278.033 757.101 278.269C757.943 279.077 759.035 279.568 760.224 279.568C762.892 279.568 765.05 277.126 765.05 274.121C765.05 273.182 764.833 272.303 764.459 271.53V271.53Z" fill="#162B38"/>
<path fill-rule="evenodd" clip-rule="evenodd" d="M774.43 254.526C763.348 236.482 744.89 224.631 724.022 224.582V235.422C741.559 235.472 757.061 245.399 766.413 260.527C766.721 261.019 766.958 261.411 767.248 261.914C767.402 262.104 767.506 262.239 767.61 262.344C768.461 263.199 769.578 263.718 770.803 263.718C773.467 263.718 775.625 261.276 775.625 258.269C775.625 256.857 775.102 255.641 774.43 254.526Z" fill="#162B38"/>
<path fill-rule="evenodd" clip-rule="evenodd" d="M1239.94 308.154C1218.14 308.187 1200.49 328.174 1200.53 352.782C1200.56 377.396 1240.12 448.606 1240.12 448.606C1240.12 448.606 1279.5 377.266 1279.47 352.656C1279.44 328.044 1261.74 308.122 1239.94 308.154H1239.94ZM1240.03 381.572C1226.39 381.595 1215.32 369.129 1215.3 353.735C1215.29 338.345 1226.32 325.839 1239.96 325.819C1253.6 325.8 1264.67 338.264 1264.69 353.652C1264.71 369.052 1253.67 381.55 1240.03 381.572Z" fill="#E82E2E"/>
<path fill-rule="evenodd" clip-rule="evenodd" d="M1256.12 353.669C1256.13 363.715 1248.92 371.877 1240.02 371.887C1231.12 371.907 1223.89 363.77 1223.88 353.722C1223.87 343.676 1231.07 335.512 1239.97 335.502C1248.87 335.484 1256.1 343.623 1256.12 353.669Z" fill="white"/>
<path fill-rule="evenodd" clip-rule="evenodd" d="M1240.07 325.826C1253.65 325.871 1264.67 338.304 1264.69 353.652C1264.71 369.008 1253.72 381.471 1240.14 381.566L1240.22 448.414C1242.48 444.322 1279.5 376.519 1279.47 352.656C1279.44 328.089 1261.8 308.19 1240.05 308.16L1240.07 325.826Z" fill="#B72121"/>
<path fill-rule="evenodd" clip-rule="evenodd" d="M1240.08 335.508L1240.13 371.885C1248.98 371.802 1256.12 363.681 1256.12 353.669C1256.1 343.665 1248.93 335.56 1240.08 335.508V335.508Z" fill="#E0E0E0"/>
<path fill-rule="evenodd" clip-rule="evenodd" d="M972.637 240.257C972.637 273.487 948.772 300.428 919.336 300.428C889.901 300.428 866.034 273.487 866.034 240.257C866.034 207.023 889.901 180.086 919.336 180.086C948.772 180.086 972.637 207.023 972.637 240.257Z" fill="#F1592A"/>
<path fill-rule="evenodd" clip-rule="evenodd" d="M919.336 180.086C919.282 180.086 919.229 180.092 919.175 180.092V300.424C919.229 300.424 919.282 300.428 919.336 300.428C948.772 300.428 972.637 273.487 972.637 240.257C972.637 207.023 948.772 180.086 919.336 180.086V180.086Z" fill="#BC3C1B"/>
<path fill-rule="evenodd" clip-rule="evenodd" d="M954.223 248.629C954.223 248.629 952.602 202.116 923.986 199.098V199.078H917.495V246.945C912.285 244.782 904.803 245.751 897.767 250.092C887.41 256.48 881.946 267.715 885.563 275.188C889.183 282.665 900.508 283.552 910.863 277.172C919.959 271.559 925.274 262.214 923.986 254.955V223.108C925.857 223.098 946.484 223.583 954.223 248.629L954.223 248.629Z" fill="#FCFCFC"/>
<path fill-rule="evenodd" clip-rule="evenodd" d="M954.224 248.629C954.224 248.629 952.603 202.116 923.986 199.098V199.078H919.041V269.967C922.909 265.126 924.813 259.608 923.986 254.955V223.108C925.857 223.098 946.484 223.583 954.224 248.629V248.629Z" fill="#DBDBDB"/>
<path fill-rule="evenodd" clip-rule="evenodd" d="M646.966 732.664C646.966 734.248 645.837 735.528 644.44 735.528L575.46 735.617C574.063 735.617 572.928 734.338 572.928 732.759L572.794 598.025C572.791 596.448 573.921 595.163 575.322 595.163L644.297 595.074C645.696 595.072 646.828 596.355 646.83 597.93L646.966 732.664Z" fill="#3D3D3D"/>
<path fill-rule="evenodd" clip-rule="evenodd" d="M644.297 595.074L608.3 595.125L608.441 735.577L644.44 735.528C645.837 735.528 646.966 734.248 646.966 732.664L646.83 597.93C646.828 596.355 645.696 595.072 644.297 595.074L644.297 595.074Z" fill="#2B2B2B"/>
<path fill-rule="evenodd" clip-rule="evenodd" d="M572.923 728.13L572.928 732.759C572.928 734.339 574.063 735.617 575.46 735.617L644.44 735.528C645.838 735.528 646.966 734.248 646.966 732.664L646.963 728.039L572.923 728.13Z" fill="#1C1C1C"/>
<path fill-rule="evenodd" clip-rule="evenodd" d="M608.304 728.088L608.309 735.575L644.44 735.528C645.837 735.528 646.966 734.248 646.966 732.664L646.963 728.039L608.304 728.088Z" fill="#0C0C0C"/>
<path fill-rule="evenodd" clip-rule="evenodd" d="M576.632 606.689L642.996 606.614L643.116 712.723L576.752 712.798L576.632 606.689Z" fill="#F9F9F9"/>
<path fill-rule="evenodd" clip-rule="evenodd" d="M608.249 606.648L642.997 606.61L643.115 712.723L608.367 712.761L608.249 606.648Z" fill="#EAEAEA"/>
<path fill-rule="evenodd" clip-rule="evenodd" d="M612.072 600.863C612.072 602.265 611.063 603.414 609.818 603.414C608.573 603.414 607.56 602.275 607.558 600.869C607.558 599.456 608.567 598.319 609.812 598.316C611.059 598.314 612.068 599.452 612.072 600.863V600.863Z" fill="#EAEAEA"/>
<path fill-rule="evenodd" clip-rule="evenodd" d="M617.231 655.547L616.222 655.561L616.183 650.215C616.144 645.341 612.606 641.421 608.291 641.463C603.981 641.506 600.505 645.497 600.543 650.364L600.582 655.712L599.573 655.722C598.827 655.732 598.226 656.419 598.231 657.263L598.394 678.185C598.403 679.028 599.009 679.708 599.757 679.698L608.613 679.613L617.414 679.527C618.16 679.521 618.763 678.832 618.752 677.986L618.596 657.063C618.589 656.217 617.979 655.541 617.231 655.547L617.231 655.547ZM609.762 667.798L609.801 673.009C609.81 673.803 609.243 674.445 608.549 674.451C607.849 674.459 607.273 673.827 607.27 673.035L607.23 667.822C606.069 667.277 605.246 665.991 605.234 664.478C605.218 662.466 606.656 660.812 608.441 660.8C610.229 660.778 611.69 662.399 611.707 664.417C611.717 665.928 610.916 667.227 609.762 667.798L609.762 667.798ZM613.478 655.587L608.431 655.635L603.325 655.684L603.285 650.338C603.262 647.179 605.52 644.582 608.32 644.558C611.118 644.531 613.413 647.08 613.437 650.241L613.478 655.587Z" fill="#212121"/>
<path fill-rule="evenodd" clip-rule="evenodd" d="M1064.36 641.097C1014.17 628.577 1023.33 584.007 1023.33 584.007L924.506 569.889L920.5 569.312L916.48 569.859L817.545 583.26C817.545 583.26 826.315 627.891 776.022 640.047C774.904 727.116 805.025 850.588 904.411 894.32C909.146 896.403 914.039 898.299 919.09 900.012C924.153 898.34 929.061 896.481 933.814 894.431C1033.57 851.418 1064.74 728.17 1064.36 641.097L1064.36 641.097Z" fill="#E8B031"/>
<path fill-rule="evenodd" clip-rule="evenodd" d="M919.043 911.115L915.2 909.814C909.842 908.002 904.575 905.958 899.548 903.748C851.811 882.741 815.618 843.532 791.982 787.203C767.366 728.533 764.325 669.749 764.707 639.932L764.811 631.966L773.152 629.954C812.861 620.357 806.697 586.559 806.415 585.123L804.33 574.494L920.544 558.754L1036.62 575.341L1034.44 585.954C1033.75 589.498 1028.78 621.407 1067.32 631.018L1075.64 633.094L1075.68 641.06C1075.81 670.881 1072.27 729.646 1047.15 788.133C1023.03 844.285 986.512 883.228 938.593 903.89C933.54 906.073 928.263 908.07 922.897 909.839L919.043 911.115ZM787.311 647.699C788.025 734.375 820.078 845.644 909.279 884.898C912.467 886.305 915.771 887.633 919.137 888.865C922.509 887.658 925.821 886.358 929.028 884.971C1018.56 846.37 1051.55 735.328 1053.01 648.66C1020.18 637.068 1011.32 611.357 1011.22 592.841L920.45 579.873L829.578 592.181C829.317 610.692 820.241 636.341 787.311 647.699H787.311Z" fill="#D17802"/>
<path fill-rule="evenodd" clip-rule="evenodd" d="M1064.36 641.097C1014.18 628.577 1023.33 584.007 1023.33 584.007L924.506 569.889L920.785 569.354L919.375 899.914C924.334 898.264 929.152 896.444 933.815 894.431C1033.57 851.418 1064.74 728.169 1064.36 641.097Z" fill="#CE9729"/>
<path fill-rule="evenodd" clip-rule="evenodd" d="M1075.68 641.059L1075.64 633.094L1067.32 631.018C1028.78 621.407 1033.75 589.498 1034.44 585.954L1036.62 575.341L920.829 558.795L920.74 579.911L1011.22 592.841C1011.32 611.357 1020.18 637.067 1053.01 648.66C1051.55 735.327 1018.56 846.369 929.028 884.97C925.917 886.31 922.691 887.583 919.423 888.757L919.328 911.019L922.897 909.838C928.263 908.07 933.541 906.073 938.593 903.889C986.512 883.228 1023.03 844.285 1047.15 788.132C1072.27 729.646 1075.81 670.88 1075.68 641.059V641.059Z" fill="#996005"/>
<path fill-rule="evenodd" clip-rule="evenodd" d="M961.377 710.842L956.667 710.827L956.758 690.428C956.831 671.856 940.531 656.684 920.411 656.612C900.292 656.541 883.859 671.59 883.777 690.162L883.693 710.563L878.982 710.546C875.497 710.533 872.662 713.134 872.651 716.343L872.309 796.198C872.297 799.405 875.111 802.025 878.592 802.038L919.915 802.186L960.989 802.339C964.472 802.347 967.303 799.754 967.321 796.536L967.666 716.687C967.675 713.474 964.862 710.857 961.377 710.842V710.842ZM925.892 757.176L925.806 777.069C925.796 780.082 923.134 782.514 919.872 782.504C916.611 782.49 913.979 780.037 913.991 777.025L914.075 757.129C908.685 754.986 904.917 750.029 904.946 744.27C904.974 736.574 911.762 730.357 920.096 730.392C928.433 730.42 935.167 736.684 935.131 744.384C935.108 750.136 931.299 755.066 925.892 757.176H925.892ZM943.869 710.777L920.305 710.696L896.492 710.609L896.578 690.21C896.628 678.148 907.3 668.374 920.36 668.427C933.421 668.475 944.007 678.323 943.951 690.382L943.869 710.777Z" fill="white"/>
<path fill-rule="evenodd" clip-rule="evenodd" d="M1089.73 702.713C1090.38 700.994 1090.74 699.102 1090.74 697.112C1090.74 689.211 1085.06 682.805 1078.06 682.805C1077.26 682.805 1076.49 682.898 1075.73 683.053C1075.38 675.508 1069.86 669.507 1063.09 669.507C1062.99 669.507 1062.88 669.523 1062.78 669.527C1059.85 662.491 1053.51 657.615 1046.17 657.615C1037.16 657.615 1029.67 664.945 1028.12 674.613C1026.62 674.163 1025.04 673.918 1023.42 673.918C1013.28 673.918 1005.07 683.197 1005.07 694.632C1005.07 697.5 1005.58 700.229 1006.52 702.713L1089.73 702.713Z" fill="white"/>
<path fill-rule="evenodd" clip-rule="evenodd" d="M812.684 775.59C813.21 774.197 813.501 772.66 813.501 771.05C813.501 764.642 808.898 759.443 803.219 759.443C802.573 759.443 801.947 759.52 801.334 759.645C801.047 753.529 796.573 748.66 791.082 748.66C790.994 748.66 790.912 748.672 790.823 748.674C788.449 742.966 783.312 739.016 777.353 739.016C770.048 739.016 763.974 744.96 762.718 752.798C761.498 752.435 760.22 752.237 758.902 752.237C750.681 752.237 744.02 759.76 744.02 769.036C744.02 771.363 744.439 773.575 745.195 775.59L812.684 775.59Z" fill="white"/>
</g>
</svg>
