<svg width="118" height="162" viewBox="0 0 118 162" fill="none" xmlns="http://www.w3.org/2000/svg">
<g opacity="0.5">
<path fill-rule="evenodd" clip-rule="evenodd" d="M55.2784 0.962891L15.8461 5.74037C7.27753 5.74037 0.332031 12.687 0.332031 21.2555V71.6774C0.332031 102.022 24.9328 126.622 55.2784 126.622C85.623 126.622 110.224 102.022 110.224 71.6774V21.2555C110.224 12.687 103.277 5.74037 94.71 5.74037L55.2784 0.962891Z" fill="#2EE5C2"/>
</g>
<path fill-rule="evenodd" clip-rule="evenodd" d="M29.7581 28.4492C29.7581 23.4344 33.8233 19.3691 38.8381 19.3691H106.601C111.616 19.3691 115.681 23.4344 115.681 28.4492V150.776C115.681 155.791 111.616 159.857 106.601 159.857H38.8381C33.8233 159.857 29.7581 155.791 29.7581 150.776V28.4492Z" fill="white"/>
<path fill-rule="evenodd" clip-rule="evenodd" d="M29.7791 146.239C29.7791 143.389 32.0896 141.078 34.9397 141.078H109.537C112.387 141.078 114.697 143.389 114.697 146.239V153.444C114.697 156.294 112.387 158.604 109.537 158.604H34.9397C32.0896 158.604 29.7791 156.294 29.7791 153.444V146.239Z" fill="#D3FAF2"/>
<path fill-rule="evenodd" clip-rule="evenodd" d="M105.809 161.784H39.2815C33.0526 161.784 27.985 156.715 27.985 150.486V28.9674C27.985 22.7386 33.0525 17.6699 39.2815 17.6699H105.809C112.039 17.6699 117.107 22.7386 117.107 28.9674V150.486C117.107 156.715 112.039 161.784 105.809 161.784ZM39.2815 20.8691C34.8163 20.8691 31.1842 24.5024 31.1842 28.9674V150.486C31.1842 154.952 34.8163 158.585 39.2815 158.585H105.809C110.275 158.585 113.908 154.952 113.908 150.486V28.9674C113.908 24.5024 110.275 20.8691 105.809 20.8691H39.2815Z" fill="#095EB2"/>
<path fill-rule="evenodd" clip-rule="evenodd" d="M73.9001 110.13C64.8004 110.13 55.6996 110.13 46.6 110.13C43.4039 111.775 40.2078 113.422 37.012 115.067C37.6838 113.422 38.3566 111.775 39.0286 110.13V83.9219H73.9001V110.13Z" fill="white"/>
<path fill-rule="evenodd" clip-rule="evenodd" d="M76.8409 29.1953H68.249C67.5132 29.1953 66.916 28.5981 66.916 27.8623C66.916 27.1255 67.5132 26.5293 68.249 26.5293H76.8409C77.5779 26.5293 78.174 27.1255 78.174 27.8623C78.174 28.5981 77.5779 29.1953 76.8409 29.1953Z" fill="#095EB2"/>
<path fill-rule="evenodd" clip-rule="evenodd" d="M85.434 29.1923C85.0821 29.1923 84.7398 29.0537 84.4955 28.8084C84.2396 28.5524 84.101 28.2112 84.101 27.8593C84.101 27.774 84.1116 27.6887 84.1213 27.6044C84.1436 27.5191 84.1639 27.4327 84.2066 27.3474C84.2396 27.2738 84.2822 27.1982 84.3249 27.1234C84.3782 27.0499 84.4305 26.9859 84.4955 26.9208C84.9861 26.4196 85.8712 26.4196 86.3724 26.9208C86.4352 26.9859 86.4897 27.0499 86.5429 27.1234C86.5856 27.1982 86.6285 27.2738 86.6594 27.3474C86.6912 27.4327 86.7244 27.5191 86.7446 27.6044C86.7564 27.6887 86.767 27.774 86.767 27.8593C86.767 28.2112 86.6285 28.5524 86.3724 28.8084C86.1259 29.0537 85.786 29.1923 85.434 29.1923H85.434Z" fill="#095EB2"/>
<path fill-rule="evenodd" clip-rule="evenodd" d="M59.6589 29.1936C59.5737 29.1936 59.4775 29.184 59.3923 29.1722C59.3071 29.1509 59.2313 29.1296 59.1461 29.0987C59.0605 29.055 58.9871 29.0229 58.9126 28.9696C58.8368 28.9174 58.7738 28.863 58.7087 28.8097C58.4645 28.5537 58.326 28.2125 58.326 27.8606C58.326 27.5087 58.4645 27.1674 58.7087 26.9221C59.0181 26.6129 59.4775 26.4636 59.9148 26.5606C59.9991 26.5702 60.0845 26.6033 60.1698 26.6342C60.2455 26.6662 60.3202 26.7089 60.3938 26.7515C60.4693 26.8059 60.5323 26.8582 60.5975 26.9221C60.8415 27.1674 60.9921 27.5087 60.9921 27.8606C60.9921 28.2125 60.8415 28.5537 60.5975 28.8097C60.5323 28.863 60.4694 28.9174 60.3938 28.9696C60.3202 29.0229 60.2455 29.055 60.1698 29.0987C60.0845 29.1296 59.9991 29.1509 59.9148 29.1722C59.8296 29.184 59.7441 29.1936 59.6589 29.1936H59.6589Z" fill="#095EB2"/>
<path fill-rule="evenodd" clip-rule="evenodd" d="M39.3768 108.808C38.6818 111.265 37.9852 113.722 37.29 116.18C40.4433 114.093 43.5956 112.007 46.749 109.92L73.9009 109.711V83.5039C62.2768 83.5039 50.653 83.5039 39.0292 83.5039L39.3768 108.808Z" fill="#BDD4EA"/>
<path fill-rule="evenodd" clip-rule="evenodd" d="M37.2896 117.514C37.0123 117.514 36.7373 117.427 36.5037 117.257C36.0536 116.927 35.8565 116.353 36.0068 115.817L38.0414 108.633L37.6959 83.523C37.6906 83.1668 37.8292 82.8224 38.0798 82.5686C38.3305 82.3148 38.6716 82.1719 39.0289 82.1719H73.8993C74.6362 82.1719 75.2324 82.7691 75.2324 83.5049V109.713C75.2324 110.444 74.6427 111.039 73.91 111.046L47.155 111.251L38.0254 117.292C37.8026 117.44 37.5455 117.514 37.2896 117.514V117.514ZM40.3811 84.8379L40.7096 108.789C40.7118 108.918 40.6946 109.047 40.6596 109.171L39.5514 113.085L46.0139 108.81C46.2284 108.667 46.48 108.59 46.739 108.588L72.5663 108.389V84.8379L40.3811 84.8379Z" fill="#095EB2"/>
<path fill-rule="evenodd" clip-rule="evenodd" d="M67.8911 120.979C76.9907 120.979 86.0914 120.979 95.1911 120.979C98.3869 122.625 101.583 124.271 104.779 125.917C104.107 124.271 103.434 122.625 102.763 120.979V94.7715H67.8911L67.8911 120.979Z" fill="#BDD4EA"/>
<path fill-rule="evenodd" clip-rule="evenodd" d="M95.846 112.59H89.7759C89.0403 112.59 88.4431 111.994 88.4431 111.257C88.4431 110.521 89.0403 109.924 89.7759 109.924H95.846C96.5828 109.924 97.179 110.521 97.179 111.257C97.179 111.994 96.5828 112.59 95.846 112.59Z" fill="#095EB2"/>
<path fill-rule="evenodd" clip-rule="evenodd" d="M95.8459 103.998H83.7061C82.9691 103.998 82.373 103.401 82.373 102.665C82.373 101.928 82.9691 101.332 83.7061 101.332H95.8459C96.583 101.332 97.1791 101.928 97.1791 102.665C97.1791 103.401 96.583 103.998 95.8459 103.998Z" fill="#095EB2"/>
<path fill-rule="evenodd" clip-rule="evenodd" d="M104.502 128.361C104.245 128.361 103.989 128.289 103.766 128.141L94.6363 122.099L67.8812 121.895C67.1486 121.888 66.559 121.293 66.559 120.562V94.3536C66.559 93.6199 67.1519 93.0238 67.8856 93.0206L102.241 92.8691H102.247C102.98 92.8691 103.575 93.4599 103.58 94.1926L103.747 119.467L105.784 126.666C105.935 127.202 105.738 127.776 105.288 128.105C105.054 128.276 104.778 128.361 104.502 128.361ZM69.225 119.238L95.0523 119.437C95.3104 119.439 95.5632 119.515 95.7774 119.657L102.24 123.934L101.131 120.02C101.099 119.905 101.083 119.785 101.082 119.666L100.923 95.5405L69.2251 95.6802L69.225 119.238Z" fill="#095EB2"/>
<path fill-rule="evenodd" clip-rule="evenodd" d="M108.237 73.2681C108.237 79.8414 102.91 85.1628 96.3365 85.1628C89.7698 85.1628 84.443 79.8414 84.443 73.2681C84.443 66.6958 89.7698 61.3691 96.3365 61.3691C102.91 61.3691 108.237 66.6958 108.237 73.2681Z" fill="white"/>
<path fill-rule="evenodd" clip-rule="evenodd" d="M96.337 86.2292C89.191 86.2292 83.377 80.4152 83.377 73.2682C83.377 66.119 89.191 60.3027 96.337 60.3027C103.486 60.3027 109.304 66.119 109.304 73.2682C109.304 80.4152 103.486 86.2292 96.337 86.2292ZM96.337 62.4355C90.3672 62.4355 85.5098 67.2952 85.5098 73.2682C85.5098 79.2389 90.3672 84.0964 96.337 84.0964C102.311 84.0964 107.171 79.239 107.171 73.2682C107.171 67.2952 102.311 62.4355 96.337 62.4355Z" fill="#095EB2"/>
<path fill-rule="evenodd" clip-rule="evenodd" d="M99.3517 79.0293C99.0786 79.0293 98.8057 78.9249 98.5976 78.7169C97.272 77.3946 95.1201 77.3924 93.7956 78.7169C93.3788 79.1328 92.7036 79.1328 92.2877 78.7169C91.8707 78.2999 91.8707 77.6249 92.2877 77.209C94.4441 75.0517 97.9504 75.0538 100.106 77.209C100.521 77.6249 100.521 78.2999 100.106 78.7169C99.8965 78.9249 99.6235 79.0293 99.3517 79.0293Z" fill="#095EB2"/>
<path fill-rule="evenodd" clip-rule="evenodd" d="M101.289 71.0398C100.149 71.0398 99.039 70.4479 98.4269 69.3922C98.1325 68.8814 98.3075 68.2298 98.8182 67.9344C99.3249 67.639 99.9785 67.815 100.275 68.3247C100.597 68.8814 101.308 69.0702 101.865 68.7513C102.374 68.4559 103.027 68.6308 103.322 69.1416C103.617 69.6513 103.441 70.304 102.931 70.5972C102.414 70.8969 101.847 71.0398 101.289 71.0398L101.289 71.0398Z" fill="#095EB2"/>
<path fill-rule="evenodd" clip-rule="evenodd" d="M91.1035 71.0431C90.533 71.0431 89.9689 70.8928 89.4604 70.5995C88.9504 70.3052 88.7756 69.6525 89.07 69.1428C89.3653 68.632 90.0169 68.4571 90.5267 68.7525C90.7952 68.9082 91.1077 68.9487 91.4106 68.8687C91.7104 68.7876 91.9621 68.5957 92.1166 68.327C92.412 67.8151 93.0615 67.6424 93.5744 67.9356C94.0843 68.2299 94.2592 68.8826 93.9647 69.3923C93.5242 70.1548 92.814 70.7008 91.9632 70.929C91.6783 71.0047 91.3904 71.0431 91.1035 71.0431Z" fill="#095EB2"/>
<path fill-rule="evenodd" clip-rule="evenodd" d="M61.0825 58.524C61.0825 65.0973 55.756 70.4186 49.1837 70.4186C42.6166 70.4186 37.289 65.0973 37.289 58.524C37.289 51.9517 42.6166 46.625 49.1837 46.625C55.756 46.625 61.0825 51.9517 61.0825 58.524Z" fill="white"/>
<path fill-rule="evenodd" clip-rule="evenodd" d="M49.1841 71.485C42.0371 71.485 36.223 65.6699 36.223 58.5239C36.223 51.3748 42.0371 45.5586 49.1841 45.5586C56.3333 45.5586 62.1504 51.3748 62.1504 58.5239C62.1504 65.6699 56.3333 71.485 49.1841 71.485ZM49.1841 47.6914C43.2133 47.6914 38.3558 52.551 38.3558 58.5239C38.3558 64.4947 43.2133 69.3522 49.1841 69.3522C55.157 69.3522 60.0177 64.4947 60.0177 58.5239C60.0177 52.551 55.157 47.6914 49.1841 47.6914Z" fill="#095EB2"/>
<path fill-rule="evenodd" clip-rule="evenodd" d="M45.8878 64.286C45.6147 64.286 45.3418 64.1815 45.1338 63.9735C44.7168 63.5565 44.7168 62.8826 45.1338 62.4656C47.2869 60.3115 50.7954 60.3104 52.9515 62.4656C53.3676 62.8816 53.3676 63.5565 52.9515 63.9735C52.5345 64.3905 51.8596 64.3894 51.4438 63.9746C50.1193 62.6501 47.9641 62.6501 46.6417 63.9735C46.4326 64.1815 46.1608 64.286 45.8878 64.286Z" fill="#095EB2"/>
<path fill-rule="evenodd" clip-rule="evenodd" d="M54.1346 56.2989C53.8489 56.2989 53.5599 56.2616 53.2753 56.1848C52.4254 55.9576 51.715 55.4116 51.2747 54.6481C50.9792 54.1383 51.1542 53.4868 51.6651 53.1925C52.1726 52.8971 52.8262 53.0719 53.1216 53.5827C53.2762 53.8526 53.528 54.0445 53.8276 54.1255C54.1295 54.2044 54.4418 54.1639 54.7115 54.0083C55.2192 53.715 55.873 53.8888 56.1683 54.3996C56.4637 54.9094 56.2889 55.562 55.7782 55.8563C55.2705 56.1496 54.7053 56.2989 54.1346 56.2989Z" fill="#095EB2"/>
<path fill-rule="evenodd" clip-rule="evenodd" d="M43.9495 56.2953C43.3908 56.2953 42.8255 56.1535 42.3074 55.8538C41.7975 55.5595 41.6226 54.9079 41.917 54.3982C42.2113 53.8874 42.865 53.7114 43.3737 54.0079C43.9302 54.3278 44.6437 54.1369 44.9648 53.5802C45.2591 53.0705 45.9106 52.8946 46.4214 53.191C46.9312 53.4864 47.1061 54.138 46.8118 54.6477C46.2019 55.7045 45.0906 56.2953 43.9495 56.2953H43.9495Z" fill="#095EB2"/>
<path fill-rule="evenodd" clip-rule="evenodd" d="M57.6035 150.867H49.0051C48.2682 150.867 47.6721 150.27 47.6721 149.534C47.6721 148.797 48.2682 148.201 49.0051 148.201H57.6035C58.3403 148.201 58.9365 148.797 58.9365 149.534C58.9365 150.27 58.3403 150.867 57.6035 150.867Z" fill="#095EB2"/>
<path fill-rule="evenodd" clip-rule="evenodd" d="M97.6636 150.867H89.0639C88.3283 150.867 87.731 150.27 87.731 149.534C87.731 148.797 88.3283 148.201 89.0639 148.201H97.6636C98.3996 148.201 98.9968 148.797 98.9968 149.534C98.9968 150.27 98.3996 150.867 97.6636 150.867Z" fill="#095EB2"/>
<path fill-rule="evenodd" clip-rule="evenodd" d="M73.0374 156.32C69.4648 156.32 66.559 153.413 66.559 149.841C66.559 146.268 69.4648 143.361 73.0374 143.361C76.6098 143.361 79.5168 146.268 79.5168 149.841C79.5168 153.413 76.6098 156.32 73.0374 156.32ZM73.0374 146.027C70.9344 146.027 69.225 147.738 69.225 149.841C69.225 151.944 70.9344 153.654 73.0374 153.654C75.1393 153.654 76.8508 151.944 76.8508 149.841C76.8508 147.738 75.1393 146.027 73.0374 146.027Z" fill="#095EB2"/>
<path fill-rule="evenodd" clip-rule="evenodd" d="M52.0151 101.74H45.944C45.2082 101.74 44.611 101.144 44.611 100.407C44.611 99.6714 45.2082 99.0742 45.944 99.0742H52.0151C52.7507 99.0742 53.348 99.6714 53.348 100.407C53.348 101.144 52.7507 101.74 52.0151 101.74Z" fill="#095EB2"/>
<path fill-rule="evenodd" clip-rule="evenodd" d="M58.085 93.1484H45.944C45.2082 93.1484 44.611 92.5512 44.611 91.8154C44.611 91.0796 45.2082 90.4824 45.944 90.4824H58.085C58.8218 90.4824 59.418 91.0796 59.418 91.8154C59.418 92.5512 58.8218 93.1484 58.085 93.1484Z" fill="#095EB2"/>
</svg>
